<svg xmlns="http://www.w3.org/2000/svg" width="56" height="61.411" viewBox="0 0 56 61.411">
  <g id="Grupo_312" data-name="Grupo 312" transform="translate(-91 -346)">
    <path id="blob_1_" data-name="blob (1)" d="M-13.971-43.4c1.588,4.317.893,8.633,6.3,13.694S9.348-18.842,9.745-15.518C10.191-12.243-.476-11.45-7.819-7.381-15.212-3.313-19.23,3.981-24.936,6.263-30.691,8.545-38.034,5.816-42.2.706a18.492,18.492,0,0,1-2.828-18.06c2.282-5.507,7.839-9.129,8.931-14.736,1.042-5.607-2.382-13.247-.992-17.613,1.389-4.416,7.591-5.557,12.652-3.92A17.228,17.228,0,0,1-13.971-43.4Z" transform="translate(137.242 400.334)" fill="#83bbb5"/>
    <g id="home-icon" transform="translate(77 300)">
      <g id="Grupo_304" data-name="Grupo 304" transform="translate(14 54)">
        <g id="Grupo_303" data-name="Grupo 303" transform="translate(0 0)">
          <g id="Grupo_298" data-name="Grupo 298" transform="translate(23.719 15.041)">
            <path id="Trazado_379" data-name="Trazado 379" d="M223.281,192.562a4.281,4.281,0,1,1,4.281-4.281A4.286,4.286,0,0,1,223.281,192.562Zm0-6.942a2.661,2.661,0,1,0,2.661,2.661A2.664,2.664,0,0,0,223.281,185.62Z" transform="translate(-219 -184)" fill="#333"/>
          </g>
          <g id="Grupo_299" data-name="Grupo 299" transform="translate(39.339)">
            <path id="Trazado_380" data-name="Trazado 380" d="M360.595,63.251a.81.81,0,0,1-.317-.065l-5.785-2.462A.81.81,0,0,1,354,59.98V54.81a.81.81,0,0,1,.81-.81H360.6a.81.81,0,0,1,.81.81v7.631a.81.81,0,0,1-.81.81Zm-4.975-3.807,4.165,1.772v-5.6H355.62Z" transform="translate(-354 -54)" fill="#333"/>
          </g>
          <g id="Grupo_300" data-name="Grupo 300" transform="translate(8.099 8.099)">
            <path id="Trazado_381" data-name="Trazado 381" d="M122.992,162.645H84.81a.81.81,0,0,1-.81-.81V131.309a.81.81,0,0,1,.549-.767l19.091-6.5a.809.809,0,0,1,.522,0l19.091,6.5a.81.81,0,0,1,.549.767v30.526A.81.81,0,0,1,122.992,162.645Zm-37.372-1.62h36.562V131.889L103.9,125.666,85.62,131.889Z" transform="translate(-84 -124)" fill="#333"/>
          </g>
          <g id="Grupo_301" data-name="Grupo 301" transform="translate(0 0)">
            <path id="Trazado_382" data-name="Trazado 382" d="M69.19,72.975a.808.808,0,0,1-.261-.043L42,63.765,15.071,72.932A.81.81,0,0,1,14,72.166V66.38a.81.81,0,0,1,.493-.745l27.19-11.57a.81.81,0,0,1,.634,0L60.251,61.7h0l9.256,3.939A.81.81,0,0,1,70,66.38v5.785a.81.81,0,0,1-.81.81ZM15.62,66.916v4.118l26.119-8.892a.809.809,0,0,1,.522,0L68.38,71.034V66.916L42,55.69Z" transform="translate(-14 -54)" fill="#333"/>
          </g>
          <g id="Grupo_302" data-name="Grupo 302" transform="translate(20.826 27.769)">
            <path id="Trazado_383" data-name="Trazado 383" d="M207.537,312.975H194.81a.81.81,0,0,1-.81-.81V294.81a.81.81,0,0,1,.81-.81h12.727a.81.81,0,0,1,.81.81v17.355A.81.81,0,0,1,207.537,312.975Zm-11.917-1.62h11.107V295.62H195.62Z" transform="translate(-194 -294)" fill="#333"/>
          </g>
        </g>
      </g>
    </g>
  </g>
</svg>
