<svg xmlns="http://www.w3.org/2000/svg" xmlns:xlink="http://www.w3.org/1999/xlink" width="78" height="78" viewBox="0 0 78 78">
  <defs>
    <filter id="Rect치ngulo_28" x="0" y="0" width="78" height="78" filterUnits="userSpaceOnUse">
      <feOffset dy="2" input="SourceAlpha"/>
      <feGaussianBlur stdDeviation="3" result="blur"/>
      <feFlood flood-color="#333" flood-opacity="0.161"/>
      <feComposite operator="in" in2="blur"/>
      <feComposite in="SourceGraphic"/>
    </filter>
    <clipPath id="clip-path">
      <path id="Trazado_609" data-name="Trazado 609" d="M24.578-20.406c-.665,0-1.2-1.217-1.2-2.719s.538-2.719,1.2-2.719,1.2,1.217,1.2,2.719S25.242-20.406,24.578-20.406Zm-.14-10.188c-2.037,0-3.688,3.344-3.688,7.469s1.651,7.469,3.688,7.469S28.125-19,28.125-23.125s-1.651-7.469-3.687-7.469Z" fill="none" clip-rule="evenodd"/>
    </clipPath>
    <clipPath id="clip-path-2">
      <path id="Trazado_605" data-name="Trazado 605" d="M21.784-13.3H3.655V-1.788L5.3.059,6.945-1.788,8.588.059l1.648-1.847L11.881.059l1.648-1.847L15.179.059l1.647-1.847L18.477.059,20.13-1.788,21.784.059V-13.3" fill="none" clip-rule="evenodd"/>
    </clipPath>
    <clipPath id="clip-path-3">
      <path id="Trazado_607" data-name="Trazado 607" d="M3.655-15.263H21.581s.17.042.026-.07c-1.694-1.333-2.56-3.767-2.56-7.7,0-3.9,1.476-7.267,2.5-7.684.184-.076.041-.086.041-.086H4.015a2.062,2.062,0,0,0-.36.035c-2.576.469-3.1,3.483-3.444,5.63C-.223-22.4.09-18.381,2.087-16.248c.1.107,1.568,1.1,1.568.949v.036" fill="none" clip-rule="evenodd"/>
    </clipPath>
  </defs>
  <g id="Grupo_512" data-name="Grupo 512" transform="translate(-256 -465)">
    <g transform="matrix(1, 0, 0, 1, 256, 465)" filter="url(#Rect치ngulo_28)">
      <rect id="Rect치ngulo_28-2" data-name="Rect치ngulo 28" width="60" height="60" rx="30" transform="translate(9 7)" fill="#fff"/>
    </g>
    <g id="Grupo_511" data-name="Grupo 511">
      <g id="Grupo_470" data-name="Grupo 470" transform="translate(280.96 517.802)">
        <g id="Grupo_469" data-name="Grupo 469" clip-path="url(#clip-path)">
          <path id="Trazado_608" data-name="Trazado 608" d="M15.75-35.594H33.125v24.938H15.75Z" fill="#234d8f"/>
        </g>
        <g id="Grupo_510" data-name="Grupo 510">
          <g id="Grupo_467" data-name="Grupo 467" clip-path="url(#clip-path-2)">
            <path id="Trazado_604" data-name="Trazado 604" d="M-1.345-18.3H26.784V5.059H-1.345Z" fill="#234d8f"/>
          </g>
          <g id="Grupo_468" data-name="Grupo 468" clip-path="url(#clip-path-3)">
            <path id="Trazado_606" data-name="Trazado 606" d="M-4.96-35.8H26.665v25.547H-4.96Z" fill="#234d8f"/>
          </g>
        </g>
      </g>
    </g>
  </g>
</svg>
