<svg xmlns="http://www.w3.org/2000/svg" xmlns:xlink="http://www.w3.org/1999/xlink" width="78" height="78" viewBox="0 0 78 78">
  <defs>
    <filter id="Rect치ngulo_26" x="0" y="0" width="78" height="78" filterUnits="userSpaceOnUse">
      <feOffset dy="2" input="SourceAlpha"/>
      <feGaussianBlur stdDeviation="3" result="blur"/>
      <feFlood flood-color="#333" flood-opacity="0.161"/>
      <feComposite operator="in" in2="blur"/>
      <feComposite in="SourceGraphic"/>
    </filter>
    <clipPath id="clip-path">
      <path id="Trazado_593" data-name="Trazado 593" d="M11.167-11.655v-20.9A4.25,4.25,0,0,0,6.916-36.8a4.25,4.25,0,0,0-4.25,4.25v20.9A6.313,6.313,0,0,0,.583-6.969,6.333,6.333,0,0,0,6.916-.636,6.333,6.333,0,0,0,13.25-6.969a6.314,6.314,0,0,0-2.083-4.686" fill="none" clip-rule="evenodd"/>
    </clipPath>
    <clipPath id="clip-path-2">
      <path id="Trazado_595" data-name="Trazado 595" d="M8.062-10.261v-17.02a1.187,1.187,0,0,0-1.187-1.188,1.188,1.188,0,0,0-1.188,1.188v17.045A3.493,3.493,0,0,0,3.416-6.969a3.5,3.5,0,0,0,3.5,3.5,3.5,3.5,0,0,0,3.5-3.5,3.489,3.489,0,0,0-2.355-3.292" fill="none" clip-rule="evenodd"/>
    </clipPath>
  </defs>
  <g id="Grupo_495" data-name="Grupo 495" transform="translate(-42 -356)">
    <g transform="matrix(1, 0, 0, 1, 42, 356)" filter="url(#Rect치ngulo_26)">
      <rect id="Rect치ngulo_26-2" data-name="Rect치ngulo 26" width="60" height="60" rx="30" transform="translate(9 7)" fill="#fff"/>
    </g>
    <g id="Grupo_461" data-name="Grupo 461" transform="translate(74.417 411.802)">
      <g id="Grupo_459" data-name="Grupo 459" clip-path="url(#clip-path)">
        <path id="Trazado_592" data-name="Trazado 592" d="M-4.417-41.8H18.25V4.364H-4.417Z" fill="#234d8f"/>
      </g>
      <g id="Grupo_460" data-name="Grupo 460" clip-path="url(#clip-path-2)">
        <path id="Trazado_594" data-name="Trazado 594" d="M-1.584-33.469h17v35h-17Z" fill="#509ecb"/>
      </g>
    </g>
  </g>
</svg>
