<svg xmlns="http://www.w3.org/2000/svg" width="24" height="24" viewBox="0 0 24 24">
  <g id="global-icon" transform="translate(-34 -34)">
    <g id="Grupo_24" data-name="Grupo 24" transform="translate(34 34)">
      <g id="Grupo_23" data-name="Grupo 23">
        <g id="Grupo_17" data-name="Grupo 17" transform="translate(2.294)">
          <path id="Trazado_15" data-name="Trazado 15" d="M86.147,41.265a24.3,24.3,0,0,1-9.476-1.85.378.378,0,0,1-.155-.574,12.109,12.109,0,0,1,4.156-3.522,12.021,12.021,0,0,1,10.949,0,12.109,12.109,0,0,1,4.156,3.522.378.378,0,0,1-.155.574A24.3,24.3,0,0,1,86.147,41.265Zm-8.724-2.358a24.563,24.563,0,0,0,17.448,0,11.245,11.245,0,0,0-17.448,0Z" transform="translate(-76.441 -34)" fill="#fff"/>
        </g>
        <g id="Grupo_18" data-name="Grupo 18" transform="translate(2.294 16.735)">
          <path id="Trazado_16" data-name="Trazado 16" d="M86.147,350.865a11.87,11.87,0,0,1-5.475-1.319,12.11,12.11,0,0,1-4.156-3.522.378.378,0,0,1,.155-.574,25.192,25.192,0,0,1,18.953,0,.378.378,0,0,1,.155.574,12.108,12.108,0,0,1-4.156,3.522A11.869,11.869,0,0,1,86.147,350.865Zm-8.724-4.907a11.245,11.245,0,0,0,17.448,0,24.562,24.562,0,0,0-17.448,0Z" transform="translate(-76.441 -343.6)" fill="#fff"/>
        </g>
        <g id="Grupo_19" data-name="Grupo 19" transform="translate(5.888)">
          <path id="Trazado_17" data-name="Trazado 17" d="M149.045,58c-1.683,0-3.243-1.284-4.393-3.615A19.414,19.414,0,0,1,142.933,46a19.414,19.414,0,0,1,1.718-8.385c1.15-2.331,2.71-3.615,4.393-3.615s3.243,1.284,4.393,3.615A19.413,19.413,0,0,1,155.156,46a19.413,19.413,0,0,1-1.718,8.385C152.288,56.716,150.728,58,149.045,58Zm0-23.243c-1.38,0-2.7,1.134-3.715,3.193A18.652,18.652,0,0,0,143.69,46a18.651,18.651,0,0,0,1.64,8.05c1.016,2.059,2.335,3.193,3.715,3.193s2.7-1.134,3.715-3.193A18.651,18.651,0,0,0,154.4,46a18.651,18.651,0,0,0-1.64-8.05C151.744,35.891,150.424,34.757,149.045,34.757Z" transform="translate(-142.933 -34)" fill="#fff"/>
        </g>
        <g id="Grupo_20" data-name="Grupo 20" transform="translate(11.622)">
          <path id="Trazado_18" data-name="Trazado 18" d="M249.378,58a.378.378,0,0,1-.378-.378V34.378a.378.378,0,1,1,.757,0V57.622A.378.378,0,0,1,249.378,58Z" transform="translate(-249 -34)" fill="#fff"/>
        </g>
        <g id="Grupo_21" data-name="Grupo 21" transform="translate(0 11.622)">
          <path id="Trazado_19" data-name="Trazado 19" d="M57.622,249.757H34.378a.378.378,0,1,1,0-.757H57.622a.378.378,0,0,1,0,.757Z" transform="translate(-34 -249)" fill="#fff"/>
        </g>
        <g id="Grupo_22" data-name="Grupo 22">
          <path id="Trazado_20" data-name="Trazado 20" d="M46,58a12,12,0,1,1,8.485-3.515A11.922,11.922,0,0,1,46,58Zm0-23.243A11.243,11.243,0,1,0,57.243,46,11.256,11.256,0,0,0,46,34.757Z" transform="translate(-34 -34)" fill="#fff"/>
        </g>
      </g>
    </g>
  </g>
</svg>
