<svg xmlns="http://www.w3.org/2000/svg" width="24" height="18.858" viewBox="0 0 24 18.858"><g transform="translate(-1 -3)"><g transform="translate(1 3)"><path d="M7.286,11.572a4.286,4.286,0,1,1,4.286-4.286A4.292,4.292,0,0,1,7.286,11.572Zm0-6.858A2.572,2.572,0,1,0,9.858,7.286,2.575,2.575,0,0,0,7.286,4.714Z" transform="translate(0.429 -3)" fill="#069d71"/><path d="M15.572,17.572H1.857A.858.858,0,0,1,1,16.715V13.286a.855.855,0,0,1,.171-.514,9.429,9.429,0,0,1,15.087,0,.862.862,0,0,1,.171.514v3.429A.858.858,0,0,1,15.572,17.572ZM2.714,15.858h12V13.581a7.713,7.713,0,0,0-12,0Z" transform="translate(-1 1.286)" fill="#069d71"/><path d="M12.929,11.857a.861.861,0,0,1-.607-.25L9.75,9.035a.857.857,0,0,1,1.212-1.212l1.966,1.965,4.536-4.536a.857.857,0,0,1,1.212,1.212l-5.143,5.143A.854.854,0,0,1,12.929,11.857Z" transform="translate(5.072 -1.571)" fill="#069d71"/></g></g></svg>