<svg xmlns="http://www.w3.org/2000/svg" width="20.561" height="18.856" viewBox="0 0 20.561 18.856"><g transform="translate(-271 -333)"><g transform="translate(0 2)"><g transform="translate(53 25.986)"><g transform="translate(218 305.014)"><g transform="translate(0 0)"><path d="M7.285,11.571a4.285,4.285,0,1,1,4.285-4.285A4.291,4.291,0,0,1,7.285,11.571Zm0-6.857A2.571,2.571,0,1,0,9.857,7.285,2.574,2.574,0,0,0,7.285,4.714Z" transform="translate(0.428 -3)" fill="#069d71"/><path d="M15.571,17.571H1.857A.857.857,0,0,1,1,16.714V13.285a.855.855,0,0,1,.171-.514,9.428,9.428,0,0,1,15.085,0,.862.862,0,0,1,.171.514v3.428A.857.857,0,0,1,15.571,17.571ZM2.714,15.857h12V13.58a7.713,7.713,0,0,0-12,0Z" transform="translate(-1 1.285)" fill="#069d71"/></g></g></g><line x2="5" y2="5" transform="translate(285.5 335.5)" fill="none" stroke="#069d71" stroke-linecap="round" stroke-width="1.5"/><line x1="5" y2="5" transform="translate(285.5 335.5)" fill="none" stroke="#069d71" stroke-linecap="round" stroke-width="1.5"/></g></g></svg>