<svg xmlns="http://www.w3.org/2000/svg" width="56" height="57.447" viewBox="0 0 56 57.447">
  <g id="Grupo_309" data-name="Grupo 309" transform="translate(-88 -188)">
    <path id="blob_2_" data-name="blob (2)" d="M-6.518-61.1c3.412,2.107.8,12.945,1.3,21.173S-1.1-26.084-2.353-21.97c-1.3,4.064-7.476,6.623-12.694,8.58C-20.315-11.434-24.63-9.979-30.5-7.871-36.37-5.714-43.8-2.854-49.666-4.61c-5.87-1.806-10.235-8.178-7.676-13.647,2.559-5.519,11.991-10.085,15.8-14.8,3.863-4.716,2.107-9.533,3.311-12.393,1.154-2.86,5.218-3.713,11.991-7.476C-19.462-56.639-9.98-63.212-6.518-61.1Z" transform="translate(146.09 249.512)" fill="#ecece8"/>
    <g id="wash-hands" transform="translate(60.334 141.501)">
      <g id="Grupo_297" data-name="Grupo 297" transform="translate(27.666 49.499)">
        <g id="Grupo_296" data-name="Grupo 296" transform="translate(0 0)">
          <g id="Grupo_289" data-name="Grupo 289" transform="translate(24.271 35.933)">
            <path id="Trazado_368" data-name="Trazado 368" d="M235.42,347.924a35.219,35.219,0,0,1-8.459-1.458l-.452-.12a1.226,1.226,0,0,1,.616-2.374l.473.126a44.94,44.94,0,0,0,5.647,1.214c3.346.441,4.384-.121,4.675-.383.1-.087.323-.291.213-.99a1.226,1.226,0,1,1,2.423-.383,3.348,3.348,0,0,1-1,3.2A6.142,6.142,0,0,1,235.42,347.924Z" transform="translate(-225.591 -342.521)" fill="#333"/>
          </g>
          <g id="Grupo_290" data-name="Grupo 290" transform="translate(0 31.891)">
            <path id="Trazado_369" data-name="Trazado 369" d="M42.381,326.735H28.892a1.226,1.226,0,0,1-1.226-1.226V310.793a1.226,1.226,0,0,1,1.226-1.226H42.381a1.226,1.226,0,0,1,1.226,1.226v14.715A1.226,1.226,0,0,1,42.381,326.735Zm-12.263-2.453H41.155V312.02H30.119Z" transform="translate(-27.666 -309.567)" fill="#333"/>
          </g>
          <g id="Grupo_291" data-name="Grupo 291" transform="translate(13.505 30.113)">
            <path id="Trazado_370" data-name="Trazado 370" d="M157.343,315.6h0a18.47,18.47,0,0,1-7.018-1.564,14.479,14.479,0,0,0-5.411-1.283,15.107,15.107,0,0,0-5.443,1.177,1.226,1.226,0,0,1-1.67-1.143V297.7a1.227,1.227,0,0,1,.706-1.111,16.316,16.316,0,0,1,3.55-1.264,16.988,16.988,0,0,1,3.289-.258,42.092,42.092,0,0,1,10.819,1.484c4.05,1.17,6.461,2.819,7.185,4.913,3.088-2.167,7.231-4.247,10.286-4.687a6.655,6.655,0,0,1,.969-.067c2.6,0,5.49,1.234,5.685,3.942.091,1.322-.8,2.8-2.808,4.663a42.9,42.9,0,0,1-6.117,4.542c-4.236,2.669-9.811,5.464-12.716,5.69C158.209,315.581,157.769,315.6,157.343,315.6Zm-12.43-5.3a16.66,16.66,0,0,1,6.287,1.444,15.986,15.986,0,0,0,6.143,1.4h0c.362,0,.737-.015,1.113-.045,2.055-.16,7.041-2.447,11.6-5.32,5.985-3.771,7.83-6.316,7.785-6.957-.087-1.21-2.032-1.662-3.238-1.662a4.27,4.27,0,0,0-.615.041c-3.283.473-8.262,3.288-11,5.625a1.226,1.226,0,0,1-1.928-1.406,1.536,1.536,0,0,0,.044-.83c-.2-1.372-2.254-2.71-5.626-3.684a39.453,39.453,0,0,0-10.138-1.388,14.864,14.864,0,0,0-2.789.207,12.412,12.412,0,0,0-2.3.767v12.568A15.841,15.841,0,0,1,144.913,310.3Z" transform="translate(-137.8 -295.067)" fill="#333"/>
          </g>
          <g id="Grupo_292" data-name="Grupo 292" transform="translate(28.204 8.584)">
            <path id="Trazado_371" data-name="Trazado 371" d="M266.115,140.712a8.449,8.449,0,0,1-8.448-8.448c0-2.876,2.309-5.675,4.543-8.382a38.223,38.223,0,0,0,2.894-3.808,1.226,1.226,0,0,1,1.04-.577h0a1.226,1.226,0,0,1,1.04.579,39.1,39.1,0,0,0,2.824,3.753c2.235,2.745,4.546,5.583,4.546,8.434a8.451,8.451,0,0,1-8.441,8.448Zm.026-17.825c-.643.863-1.349,1.719-2.04,2.557-1.958,2.372-3.982,4.825-3.982,6.821a5.986,5.986,0,0,0,3.2,5.306,5.994,5.994,0,0,0,8.78-5.306c0-1.979-2.031-4.473-4-6.886C267.442,124.56,266.761,123.724,266.141,122.887Z" transform="translate(-257.667 -119.497)" fill="#333"/>
          </g>
          <g id="Grupo_293" data-name="Grupo 293" transform="translate(41.128)">
            <path id="Trazado_372" data-name="Trazado 372" d="M368.672,63.356a5.617,5.617,0,0,1-5.616-5.616c0-1.921,1.46-3.69,2.871-5.4a22.872,22.872,0,0,0,1.722-2.263,1.226,1.226,0,0,1,1.04-.577h0a1.226,1.226,0,0,1,1.04.579,23.064,23.064,0,0,0,1.681,2.232c1.412,1.734,2.871,3.526,2.871,5.43a5.617,5.617,0,0,1-5.612,5.616Zm.015-10.524c-.284.361-.578.717-.868,1.068-1.136,1.376-2.31,2.8-2.31,3.84a3.159,3.159,0,0,0,1.691,2.8,3.163,3.163,0,0,0,4.632-2.8c0-1.032-1.233-2.546-2.321-3.882C369.235,53.521,368.956,53.178,368.687,52.832Z" transform="translate(-363.056 -49.499)" fill="#333"/>
          </g>
          <g id="Grupo_294" data-name="Grupo 294" transform="translate(2.453 18.762)">
            <path id="Trazado_373" data-name="Trazado 373" d="M51.345,209.859a3.679,3.679,0,1,1,3.679-3.679A3.683,3.683,0,0,1,51.345,209.859Zm0-4.905a1.226,1.226,0,1,0,1.226,1.226A1.228,1.228,0,0,0,51.345,204.954Z" transform="translate(-47.666 -202.501)" fill="#333"/>
          </g>
          <g id="Grupo_295" data-name="Grupo 295" transform="translate(11.036 6.499)">
            <path id="Trazado_374" data-name="Trazado 374" d="M123.8,114.764a6.131,6.131,0,1,1,6.131-6.131A6.138,6.138,0,0,1,123.8,114.764Zm0-9.81a3.679,3.679,0,1,0,3.679,3.679A3.683,3.683,0,0,0,123.8,104.954Z" transform="translate(-117.666 -102.501)" fill="#333"/>
          </g>
        </g>
      </g>
    </g>
  </g>
</svg>
