<svg xmlns="http://www.w3.org/2000/svg" width="24" height="23.622" viewBox="0 0 24 23.622">
  <g id="news-paper-icon" transform="translate(-26 -34.125)">
    <g id="Grupo_59" data-name="Grupo 59" transform="translate(26 34.125)">
      <g id="Grupo_58" data-name="Grupo 58">
        <g id="Grupo_35" data-name="Grupo 35" transform="translate(19.826)">
          <path id="Trazado_25" data-name="Trazado 25" d="M409.652,37.851h-3.13a.527.527,0,0,1-.522-.532V34.657a.522.522,0,1,1,1.043,0v2.129h2.609a.532.532,0,0,1,0,1.065Z" transform="translate(-406 -34.125)" fill="#fff"/>
        </g>
        <g id="Grupo_38" data-name="Grupo 38">
          <g id="Grupo_36" data-name="Grupo 36" transform="translate(2.648)">
            <path id="Trazado_26" data-name="Trazado 26" d="M97.586,57.547H96.2a.532.532,0,0,1,0-1.065h.868V37.568l-2.8-2.379H78.8v9.582a.522.522,0,1,1-1.043,0V34.657a.527.527,0,0,1,.522-.532H94.455a.515.515,0,0,1,.334.123l3.13,2.662a.537.537,0,0,1,.188.409v19.7A.527.527,0,0,1,97.586,57.547Zm-4,0H77.278a.524.524,0,0,1-.508-.409.536.536,0,0,1,.272-.6,1.329,1.329,0,0,0,.718-1.188V47.433a.522.522,0,1,1,1.043,0v7.918a2.433,2.433,0,0,1-.276,1.131H93.588a.532.532,0,0,1,0,1.065Z" transform="translate(-76.756 -34.125)" fill="#fff"/>
          </g>
          <g id="Grupo_37" data-name="Grupo 37" transform="translate(0 5.323)">
            <path id="Trazado_27" data-name="Trazado 27" d="M28.348,152.424a2.375,2.375,0,0,1-2.348-2.4v-5.19a.522.522,0,1,1,1.043,0v5.19a1.319,1.319,0,0,0,1.3,1.331,1.268,1.268,0,0,0,.587-.142,1.329,1.329,0,0,0,.718-1.188V135.19H27.043v6.987a.522.522,0,1,1-1.043,0v-7.519a.527.527,0,0,1,.522-.532h3.652a.527.527,0,0,1,.522.532v15.371a2.391,2.391,0,0,1-1.29,2.139A2.286,2.286,0,0,1,28.348,152.424Z" transform="translate(-26 -134.125)" fill="#fff"/>
          </g>
        </g>
        <g id="Grupo_39" data-name="Grupo 39" transform="translate(5.217 8.517)">
          <path id="Trazado_28" data-name="Trazado 28" d="M130.7,195.19h-4.174a.532.532,0,0,1,0-1.065H130.7a.532.532,0,0,1,0,1.065Z" transform="translate(-126 -194.125)" fill="#fff"/>
        </g>
        <g id="Grupo_40" data-name="Grupo 40" transform="translate(10.435 8.517)">
          <path id="Trazado_29" data-name="Trazado 29" d="M232.261,195.19h-5.739a.532.532,0,0,1,0-1.065h5.739a.532.532,0,0,1,0,1.065Z" transform="translate(-226 -194.125)" fill="#fff"/>
        </g>
        <g id="Grupo_41" data-name="Grupo 41" transform="translate(17.217 8.517)">
          <path id="Trazado_30" data-name="Trazado 30" d="M360.7,195.19h-4.174a.532.532,0,0,1,0-1.065H360.7a.532.532,0,0,1,0,1.065Z" transform="translate(-356 -194.125)" fill="#fff"/>
        </g>
        <g id="Grupo_42" data-name="Grupo 42" transform="translate(5.217 10.646)">
          <path id="Trazado_31" data-name="Trazado 31" d="M130.7,235.19h-4.174a.532.532,0,0,1,0-1.065H130.7a.532.532,0,0,1,0,1.065Z" transform="translate(-126 -234.125)" fill="#fff"/>
        </g>
        <g id="Grupo_43" data-name="Grupo 43" transform="translate(10.435 10.646)">
          <path id="Trazado_32" data-name="Trazado 32" d="M232.261,235.19h-5.739a.532.532,0,0,1,0-1.065h5.739a.532.532,0,0,1,0,1.065Z" transform="translate(-226 -234.125)" fill="#fff"/>
        </g>
        <g id="Grupo_44" data-name="Grupo 44" transform="translate(17.217 10.646)">
          <path id="Trazado_33" data-name="Trazado 33" d="M360.7,235.19h-4.174a.532.532,0,0,1,0-1.065H360.7a.532.532,0,0,1,0,1.065Z" transform="translate(-356 -234.125)" fill="#fff"/>
        </g>
        <g id="Grupo_45" data-name="Grupo 45" transform="translate(5.217 12.776)">
          <path id="Trazado_34" data-name="Trazado 34" d="M130.7,275.19h-4.174a.532.532,0,0,1,0-1.065H130.7a.532.532,0,0,1,0,1.065Z" transform="translate(-126 -274.125)" fill="#fff"/>
        </g>
        <g id="Grupo_46" data-name="Grupo 46" transform="translate(10.435 12.776)">
          <path id="Trazado_35" data-name="Trazado 35" d="M232.261,275.19h-5.739a.532.532,0,0,1,0-1.065h5.739a.532.532,0,0,1,0,1.065Z" transform="translate(-226 -274.125)" fill="#fff"/>
        </g>
        <g id="Grupo_47" data-name="Grupo 47" transform="translate(17.217 12.776)">
          <path id="Trazado_36" data-name="Trazado 36" d="M360.7,275.19h-4.174a.532.532,0,0,1,0-1.065H360.7a.532.532,0,0,1,0,1.065Z" transform="translate(-356 -274.125)" fill="#fff"/>
        </g>
        <g id="Grupo_48" data-name="Grupo 48" transform="translate(5.217 14.905)">
          <path id="Trazado_37" data-name="Trazado 37" d="M130.7,315.19h-4.174a.532.532,0,0,1,0-1.065H130.7a.532.532,0,0,1,0,1.065Z" transform="translate(-126 -314.125)" fill="#fff"/>
        </g>
        <g id="Grupo_49" data-name="Grupo 49" transform="translate(10.435 14.905)">
          <path id="Trazado_38" data-name="Trazado 38" d="M232.261,315.19h-5.739a.532.532,0,0,1,0-1.065h5.739a.532.532,0,0,1,0,1.065Z" transform="translate(-226 -314.125)" fill="#fff"/>
        </g>
        <g id="Grupo_50" data-name="Grupo 50" transform="translate(17.217 14.905)">
          <path id="Trazado_39" data-name="Trazado 39" d="M360.7,315.19h-4.174a.532.532,0,0,1,0-1.065H360.7a.532.532,0,0,1,0,1.065Z" transform="translate(-356 -314.125)" fill="#fff"/>
        </g>
        <g id="Grupo_51" data-name="Grupo 51" transform="translate(5.217 17.034)">
          <path id="Trazado_40" data-name="Trazado 40" d="M130.7,355.19h-4.174a.532.532,0,0,1,0-1.065H130.7a.532.532,0,0,1,0,1.065Z" transform="translate(-126 -354.125)" fill="#fff"/>
        </g>
        <g id="Grupo_52" data-name="Grupo 52" transform="translate(10.435 17.034)">
          <path id="Trazado_41" data-name="Trazado 41" d="M232.261,355.19h-5.739a.532.532,0,0,1,0-1.065h5.739a.532.532,0,0,1,0,1.065Z" transform="translate(-226 -354.125)" fill="#fff"/>
        </g>
        <g id="Grupo_53" data-name="Grupo 53" transform="translate(17.217 17.034)">
          <path id="Trazado_42" data-name="Trazado 42" d="M360.7,355.19h-4.174a.532.532,0,0,1,0-1.065H360.7a.532.532,0,0,1,0,1.065Z" transform="translate(-356 -354.125)" fill="#fff"/>
        </g>
        <g id="Grupo_54" data-name="Grupo 54" transform="translate(5.217 19.164)">
          <path id="Trazado_43" data-name="Trazado 43" d="M130.7,395.19h-4.174a.532.532,0,0,1,0-1.065H130.7a.532.532,0,0,1,0,1.065Z" transform="translate(-126 -394.125)" fill="#fff"/>
        </g>
        <g id="Grupo_55" data-name="Grupo 55" transform="translate(10.435 19.164)">
          <path id="Trazado_44" data-name="Trazado 44" d="M232.261,395.19h-5.739a.532.532,0,0,1,0-1.065h5.739a.532.532,0,0,1,0,1.065Z" transform="translate(-226 -394.125)" fill="#fff"/>
        </g>
        <g id="Grupo_56" data-name="Grupo 56" transform="translate(17.217 19.164)">
          <path id="Trazado_45" data-name="Trazado 45" d="M360.7,395.19h-4.174a.532.532,0,0,1,0-1.065H360.7a.532.532,0,0,1,0,1.065Z" transform="translate(-356 -394.125)" fill="#fff"/>
        </g>
        <g id="Grupo_57" data-name="Grupo 57" transform="translate(5.739 2.129)">
          <path id="Trazado_46" data-name="Trazado 46" d="M148.522,78.384h-12a.527.527,0,0,1-.522-.532V74.657a.527.527,0,0,1,.522-.532h10.957a.532.532,0,0,1,0,1.065H137.043v2.129H148V76.254a.522.522,0,1,1,1.043,0v1.6A.527.527,0,0,1,148.522,78.384Z" transform="translate(-136 -74.125)" fill="#fff"/>
        </g>
      </g>
    </g>
  </g>
</svg>
