<svg xmlns="http://www.w3.org/2000/svg" xmlns:xlink="http://www.w3.org/1999/xlink" width="280.944" height="271.786" viewBox="0 0 280.944 271.786">
  <defs>
    <clipPath id="clip-path">
      <path id="Trazado_587" data-name="Trazado 587" d="M25.056-13.212A1.663,1.663,0,0,0,23.9-14.377a1.686,1.686,0,0,0-1.821.62.977.977,0,0,1-.779.421H19.169a6.592,6.592,0,0,0-1.617-3.5l1.625-1.624a.982.982,0,0,1,.853-.253,1.678,1.678,0,0,0,1.434-.473,1.693,1.693,0,0,0-.369-2.672,1.666,1.666,0,0,0-1.642,0,1.685,1.685,0,0,0-.849,1.727.979.979,0,0,1-.253.848l-1.65,1.65a6.586,6.586,0,0,0-3.471-1.388v-2.383a.987.987,0,0,1,.424-.782,1.675,1.675,0,0,0,.68-1.347,1.692,1.692,0,0,0-2.149-1.628A1.662,1.662,0,0,0,11.02-24a1.684,1.684,0,0,0,.62,1.821.979.979,0,0,1,.421.778v2.381a6.59,6.59,0,0,0-3.5,1.363L6.94-19.283a.986.986,0,0,1-.252-.854,1.677,1.677,0,0,0-.474-1.434,1.693,1.693,0,0,0-2.671.369,1.663,1.663,0,0,0,0,1.642,1.685,1.685,0,0,0,1.726.85.975.975,0,0,1,.848.253L7.7-16.866a6.584,6.584,0,0,0-1.647,3.53H3.993a.985.985,0,0,1-.783-.425,1.674,1.674,0,0,0-1.348-.68,1.693,1.693,0,0,0-1.628,2.15,1.669,1.669,0,0,0,1.158,1.165,1.685,1.685,0,0,0,1.821-.62.977.977,0,0,1,.779-.421H6A6.588,6.588,0,0,0,7.405-8.339L6.113-7.047a.981.981,0,0,1-.853.253,1.681,1.681,0,0,0-1.434.472A1.694,1.694,0,0,0,4.2-3.65a1.668,1.668,0,0,0,1.642.005,1.686,1.686,0,0,0,.85-1.726.98.98,0,0,1,.252-.849L8.208-7.488a6.583,6.583,0,0,0,3.853,1.659V-4.1a.985.985,0,0,1-.425.782,1.677,1.677,0,0,0-.68,1.348,1.692,1.692,0,0,0,2.15,1.628A1.667,1.667,0,0,0,14.271-1.5,1.686,1.686,0,0,0,13.65-3.32a.978.978,0,0,1-.421-.778V-5.832a6.594,6.594,0,0,0,3.823-1.686l1.3,1.3a.987.987,0,0,1,.253.854,1.671,1.671,0,0,0,.473,1.433A1.692,1.692,0,0,0,21.747-4.3a1.663,1.663,0,0,0,0-1.642,1.682,1.682,0,0,0-1.726-.849.976.976,0,0,1-.848-.253l-1.329-1.33a6.576,6.576,0,0,0,1.377-3.791H21.3a.984.984,0,0,1,.783.425,1.676,1.676,0,0,0,1.348.679,1.692,1.692,0,0,0,1.628-2.149" fill="none" clip-rule="evenodd"/>
    </clipPath>
    <clipPath id="clip-path-5">
      <path id="Trazado_579" data-name="Trazado 579" d="M92.506-.917A91.678,91.678,0,0,1,.829-92.6a91.677,91.677,0,0,1,91.677-91.677A91.678,91.678,0,0,1,184.184-92.6,91.678,91.678,0,0,1,92.506-.917Z" fill="none" clip-rule="evenodd"/>
    </clipPath>
    <clipPath id="clip-path-6">
      <path id="Trazado_539" data-name="Trazado 539" d="M184.184-112.6A91.678,91.678,0,0,1,92.506-20.917,91.678,91.678,0,0,1,.829-112.6a91.677,91.677,0,0,1,91.677-91.677A91.678,91.678,0,0,1,184.184-112.6" fill="none" clip-rule="evenodd"/>
    </clipPath>
    <clipPath id="clip-path-7">
      <rect id="Rectángulo_25" data-name="Rectángulo 25" width="150" height="206" transform="translate(27 -191)" fill="none"/>
    </clipPath>
    <clipPath id="clip-path-8">
      <path id="Trazado_400" data-name="Trazado 400" d="M59.416-102.345s-16.45-.26-23.461,28.852C29.768-47.8,27.707,13.635,27.707,13.635H57.7l1.718-115.98" fill="none" clip-rule="evenodd"/>
    </clipPath>
    <clipPath id="clip-path-9">
      <path id="Trazado_399" data-name="Trazado 399" d="M31-20H162V-185H31Z" fill="none"/>
    </clipPath>
    <clipPath id="clip-path-10">
      <path id="Trazado_403" data-name="Trazado 403" d="M55.239-28.809a91.415,91.415,0,0,1-13.14-7.2c1.24-13.425,2.893-26.619,5.045-35.508A55.364,55.364,0,0,1,54.153-88.82l1.086,60.011" fill="none" clip-rule="evenodd"/>
    </clipPath>
    <clipPath id="clip-path-12">
      <path id="Trazado_406" data-name="Trazado 406" d="M129-102.345s12.325,1.056,23.462,28.852c10.892,27.186,23.664,54.248,23.664,54.248l-38.009-9.426L129-102.345" fill="none" clip-rule="evenodd"/>
    </clipPath>
    <clipPath id="clip-path-14">
      <path id="Trazado_409" data-name="Trazado 409" d="M136.207-44.1l-1.437-1.258-.056-10.807L136.207-44.1" fill="none" clip-rule="evenodd"/>
    </clipPath>
    <clipPath id="clip-path-16">
      <path id="Trazado_412" data-name="Trazado 412" d="M144.352-36.975,136.207-44.1l-1.493-12.065-.178-34.7a60.006,60.006,0,0,1,9.343,16.49c3.762,9.471,7.9,19.368,11.722,28.295a92.116,92.116,0,0,1-11.249,9.108" fill="none" clip-rule="evenodd"/>
    </clipPath>
    <clipPath id="clip-path-18">
      <path id="Trazado_415" data-name="Trazado 415" d="M134.484-100.957c-10.26-2.6-22.431-6.1-37.049-7.134v-.286q-1.632.028-3.226.1-1.6-.069-3.228-.1v.286c-14.616,1.038-26.788,4.534-37.048,7.134L56.018,14.236h79.058l-.592-115.193" fill="none" clip-rule="evenodd"/>
    </clipPath>
    <clipPath id="clip-path-20">
      <path id="Trazado_418" data-name="Trazado 418" d="M79.279-83.89c-1.718-11.181-3.5-20.221-3.5-20.221C65.6-115.361,64.814-129.94,64.814-129.94l-2.62-.582c-1.9,17.695-.727,31.539,1.844,42.257,3.326,1.016,11.791,3.656,15.241,4.375" fill="none" clip-rule="evenodd"/>
    </clipPath>
    <clipPath id="clip-path-22">
      <path id="Trazado_421" data-name="Trazado 421" d="M123.065-86.6a95.271,95.271,0,0,0,.4-46.808l-4.012,1.5s-.342,14.291-7.792,24.629a232.4,232.4,0,0,1-1.691,23.755A129.463,129.463,0,0,0,123.065-86.6" fill="none" clip-rule="evenodd"/>
    </clipPath>
    <clipPath id="clip-path-24">
      <path id="Trazado_424" data-name="Trazado 424" d="M96.381-26.443H90.689c-7.116,0-12.819-4.592-12.586-10.135L79.9-79.34h27.275l1.8,42.762c.233,5.543-5.47,10.135-12.586,10.135" fill="none" clip-rule="evenodd"/>
    </clipPath>
    <clipPath id="clip-path-26">
      <path id="Trazado_427" data-name="Trazado 427" d="M93.373-59.1A37.32,37.32,0,0,1,83.065-60.54a.379.379,0,0,1-.26-.469.38.38,0,0,1,.365-.275.379.379,0,0,1,.105.014,36.565,36.565,0,0,0,10.1,1.415,36.583,36.583,0,0,0,10.346-1.486.367.367,0,0,1,.108-.016.38.38,0,0,1,.364.273.379.379,0,0,1-.257.471A37.344,37.344,0,0,1,93.373-59.1" fill="none" clip-rule="evenodd"/>
    </clipPath>
    <clipPath id="clip-path-28">
      <path id="Trazado_430" data-name="Trazado 430" d="M93.375-52.009a37.3,37.3,0,0,1-10.31-1.445.379.379,0,0,1-.26-.47.38.38,0,0,1,.365-.274.346.346,0,0,1,.105.015,36.573,36.573,0,0,0,10.1,1.414,36.574,36.574,0,0,0,10.344-1.485.367.367,0,0,1,.108-.016.38.38,0,0,1,.364.273.379.379,0,0,1-.257.471,37.33,37.33,0,0,1-10.559,1.517" fill="none" clip-rule="evenodd"/>
    </clipPath>
    <clipPath id="clip-path-30">
      <path id="Trazado_433" data-name="Trazado 433" d="M93.376-44.923a37.341,37.341,0,0,1-10.311-1.444.379.379,0,0,1-.26-.47.381.381,0,0,1,.365-.275.381.381,0,0,1,.105.015,36.581,36.581,0,0,0,10.1,1.415,36.562,36.562,0,0,0,10.343-1.485.367.367,0,0,1,.108-.016.38.38,0,0,1,.364.272.381.381,0,0,1-.257.472,37.327,37.327,0,0,1-10.558,1.516" fill="none" clip-rule="evenodd"/>
    </clipPath>
    <clipPath id="clip-path-32">
      <path id="Trazado_436" data-name="Trazado 436" d="M93.373-37.836A37.32,37.32,0,0,1,83.065-39.28a.379.379,0,0,1-.26-.47.381.381,0,0,1,.365-.275.386.386,0,0,1,.105.015,36.564,36.564,0,0,0,10.1,1.414,36.582,36.582,0,0,0,10.346-1.485.367.367,0,0,1,.108-.016.38.38,0,0,1,.364.272.38.38,0,0,1-.257.472,37.344,37.344,0,0,1-10.561,1.517" fill="none" clip-rule="evenodd"/>
    </clipPath>
    <clipPath id="clip-path-34">
      <path id="Trazado_439" data-name="Trazado 439" d="M79.721-113.286A15,15,0,0,0,69.443-101.5a49.806,49.806,0,0,0-.68,6.721,41.446,41.446,0,0,0,1.867,14,27.437,27.437,0,0,0,1.518,3.528c3.543,6.67,11.932,13.225,21.134,13.34,9.641.12,16.831-3.742,20.88-11.877a49.073,49.073,0,0,0,2.13-5.151,52.025,52.025,0,0,0,1.825-13.6,51.68,51.68,0,0,0-.523-7.878,13.133,13.133,0,0,0-8.611-10.46c-8.221-2.9-20.709-3.055-29.262-.416" fill="none" clip-rule="evenodd"/>
    </clipPath>
    <clipPath id="clip-path-36">
      <path id="Trazado_442" data-name="Trazado 442" d="M73.037-94.411a20.287,20.287,0,0,0,6.406,6.361,24.671,24.671,0,0,0,13.5,4.407c9.055.1,15.807-3.032,19.61-9.624a20.211,20.211,0,0,0,2-4.174C116-108.692,103.774-110.1,102.617-110.35a42.683,42.683,0,0,0-12.531-.846c-3.862.434-6.545.357-10.221,2.109-3.452,1.644-7.1,4.023-7.92,8.222a9.242,9.242,0,0,0,1.092,6.454" fill="none" clip-rule="evenodd"/>
    </clipPath>
    <clipPath id="clip-path-38">
      <path id="Trazado_445" data-name="Trazado 445" d="M72.638-89.951a37.635,37.635,0,0,0-.233,4.178,37.722,37.722,0,0,0,.878,8.086.379.379,0,0,0,.452.289.379.379,0,0,0,.289-.452,36.9,36.9,0,0,1-.859-7.923,36.83,36.83,0,0,1,.228-4.093.381.381,0,0,0-.335-.42.381.381,0,0,0-.42.335" fill="none" clip-rule="evenodd"/>
    </clipPath>
    <clipPath id="clip-path-40">
      <path id="Trazado_448" data-name="Trazado 448" d="M77.4-86.9q-.174,2.472-.173,4.952a70.937,70.937,0,0,0,.57,8.979.38.38,0,0,0,.424.329.38.38,0,0,0,.329-.425,70.164,70.164,0,0,1-.564-8.883q0-2.451.171-4.9a.379.379,0,0,0-.352-.4.379.379,0,0,0-.4.352" fill="none" clip-rule="evenodd"/>
    </clipPath>
    <clipPath id="clip-path-42">
      <path id="Trazado_451" data-name="Trazado 451" d="M83.14-83.281q-.186,3.411-.186,6.828,0,3.921.246,7.836a.379.379,0,0,0,.4.355.38.38,0,0,0,.356-.4q-.245-3.888-.245-7.788,0-3.395.186-6.786a.38.38,0,0,0-.359-.4.38.38,0,0,0-.4.358" fill="none" clip-rule="evenodd"/>
    </clipPath>
    <clipPath id="clip-path-44">
      <path id="Trazado_454" data-name="Trazado 454" d="M90.285-81.367l-.1,15.944a.378.378,0,0,0,.377.382.378.378,0,0,0,.382-.377l.1-15.944a.379.379,0,0,0-.377-.382.379.379,0,0,0-.382.377" fill="none" clip-rule="evenodd"/>
    </clipPath>
    <clipPath id="clip-path-46">
      <path id="Trazado_457" data-name="Trazado 457" d="M97.171-81.177q-.051,7.973-.1,15.946a.379.379,0,0,0,.377.382.38.38,0,0,0,.382-.377l.1-15.947a.38.38,0,0,0-.377-.382.38.38,0,0,0-.382.378" fill="none" clip-rule="evenodd"/>
    </clipPath>
    <clipPath id="clip-path-48">
      <path id="Trazado_460" data-name="Trazado 460" d="M103.979-82.463a74.108,74.108,0,0,1,.444,8.1q0,3.326-.3,6.642a.379.379,0,0,0,.344.412.379.379,0,0,0,.412-.344q.3-3.346.3-6.71a74.879,74.879,0,0,0-.448-8.186.381.381,0,0,0-.419-.336.38.38,0,0,0-.336.419" fill="none" clip-rule="evenodd"/>
    </clipPath>
    <clipPath id="clip-path-50">
      <path id="Trazado_463" data-name="Trazado 463" d="M109.483-85.868a83.571,83.571,0,0,1,.781,11.4q0,1.008-.024,2.017a.38.38,0,0,0,.37.389.38.38,0,0,0,.389-.37q.025-1.019.025-2.036a84.3,84.3,0,0,0-.789-11.5.379.379,0,0,0-.428-.324.379.379,0,0,0-.324.428" fill="none" clip-rule="evenodd"/>
    </clipPath>
    <clipPath id="clip-path-52">
      <path id="Trazado_466" data-name="Trazado 466" d="M113.305-90.942a25.5,25.5,0,0,1,1.039,7.215,25.372,25.372,0,0,1-.262,3.643.38.38,0,0,0,.321.43.38.38,0,0,0,.431-.321,26.17,26.17,0,0,0,.27-3.752,26.285,26.285,0,0,0-1.07-7.43.38.38,0,0,0-.472-.256.379.379,0,0,0-.257.471" fill="none" clip-rule="evenodd"/>
    </clipPath>
    <clipPath id="clip-path-54">
      <path id="Trazado_469" data-name="Trazado 469" d="M109.306-89.03a24.81,24.81,0,0,1-16.875,5.7,24.538,24.538,0,0,1-14.368-5.7v-30.33h31.243v30.33" fill="none" clip-rule="evenodd"/>
    </clipPath>
    <clipPath id="clip-path-56">
      <path id="Trazado_472" data-name="Trazado 472" d="M120.815-140.39c0,20.254-10.36,44.945-28.528,44.945S63.759-120.136,63.759-140.39s10.361-36.673,28.528-36.673,28.528,16.419,28.528,36.673" fill="none" clip-rule="evenodd"/>
    </clipPath>
    <clipPath id="clip-path-58">
      <path id="Trazado_475" data-name="Trazado 475" d="M119.542-141.809c-1.934-3.33-22.59-16.914-22.877-19.862.118,1.212-22.208,17.242-31.269,16.193-.06,1.042-.724,5.665-.764,6.709C63.9-119.9,74.522-95.445,92-95.445c16.545,0,27.8-20.683,27.946-39.271.013-1.627.461-5.609-.4-7.093" fill="none" clip-rule="evenodd"/>
    </clipPath>
    <clipPath id="clip-path-60">
      <path id="Trazado_478" data-name="Trazado 478" d="M70.766-80.364c-1.793-6.773-7.172-51.978-6.571-63.258,2.525-.213,5.14-1.64,7.642-2.838,7.979-3.822,14.262-8.084,19.466-14.959,2.781-3.675,11.037-16.318,4.623-20.01-18.209-10.48-29.5,4.25-34.869,15.148a58.159,58.159,0,0,0-5.5,19.455l-4.4,48.218C50.7-83.783,65.52-77.855,70.766-80.364" fill="none" clip-rule="evenodd"/>
    </clipPath>
    <clipPath id="clip-path-62">
      <path id="Trazado_481" data-name="Trazado 481" d="M96.781-178.248a.4.4,0,0,1-.142.2C95.556-170.586,98.1-165,103.6-159.68c5.152,4.989,10.055,9.528,13.429,15.948,2.565,4.882,2.951,9.45,2.658,15.136-.377,7.306,1.254,36.147-3.307,47.549.266.057.541.107.824.152,9.927,1.577,18.776-6.538,18.514-16.587-.5-19.16-2.922-52.409-13.185-72.369-3.091-6.012-7.832-10.66-14.387-12.743-4.411-1.4-8.286-2.037-12.653-.873a13.942,13.942,0,0,0-2.23.871c2.133.458,4.3,1.878,3.522,4.348" fill="none" clip-rule="evenodd"/>
    </clipPath>
    <clipPath id="clip-path-64">
      <path id="Trazado_484" data-name="Trazado 484" d="M67.975-137.458c.2,4.054-1.494,7.432-3.782,7.546s-4.305-3.083-4.505-7.138,1.494-7.433,3.782-7.546,4.305,3.083,4.5,7.138" fill="none" clip-rule="evenodd"/>
    </clipPath>
    <clipPath id="clip-path-66">
      <path id="Trazado_487" data-name="Trazado 487" d="M64.737-140.936l-.233-.029c-1.238.059-2.154,1.826-2.047,3.946.1,2.031,1.111,3.633,2.283,3.715-.09-2.541-.023-5.085,0-7.632" fill="none" clip-rule="evenodd"/>
    </clipPath>
    <clipPath id="clip-path-68">
      <path id="Trazado_490" data-name="Trazado 490" d="M124.449-137.458c.2,4.054-1.493,7.432-3.782,7.546s-4.305-3.083-4.5-7.138,1.493-7.433,3.782-7.546,4.305,3.083,4.5,7.138" fill="none" clip-rule="evenodd"/>
    </clipPath>
    <clipPath id="clip-path-70">
      <path id="Trazado_493" data-name="Trazado 493" d="M119.04-140.7l.226-.067c1.23-.146,2.426,1.444,2.671,3.554.235,2.019-.493,3.765-1.635,4.041-.333-2.521-.821-5.018-1.262-7.528" fill="none" clip-rule="evenodd"/>
    </clipPath>
    <clipPath id="clip-path-72">
      <path id="Trazado_496" data-name="Trazado 496" d="M99.518-175.153c-.123,1.332-.226,2.6-.216,3.851a26.323,26.323,0,0,0,.291,3.67,23.309,23.309,0,0,0,.818,3.49c.361,1.116.836,2.233,1.357,3.429a30.033,30.033,0,0,1,1.41,3.854,12.436,12.436,0,0,1,.456,4.436,6.728,6.728,0,0,1-1.81,4.183,5.247,5.247,0,0,1-1.9,1.2,2.524,2.524,0,0,1-2.129.087,6.708,6.708,0,0,1,1.655-1.063,3.93,3.93,0,0,0,1.222-1.2,4.767,4.767,0,0,0,.587-3.214,9.611,9.611,0,0,0-1.127-3.3c-.543-1.1-1.174-2.208-1.771-3.417a21.118,21.118,0,0,1-1.541-3.954,16.761,16.761,0,0,1-.55-4.315,14.442,14.442,0,0,1,2.4-8.066l.851.326" fill="none" clip-rule="evenodd"/>
    </clipPath>
    <clipPath id="clip-path-74">
      <path id="Trazado_499" data-name="Trazado 499" d="M92.223-123.269a14.628,14.628,0,0,1-4.1-.8.537.537,0,0,0-.584.861,7.676,7.676,0,0,0,3.156,2.241,6.564,6.564,0,0,0,1.435.305,6.587,6.587,0,0,0,1.452-.2,7.7,7.7,0,0,0,3.305-2.017.538.538,0,0,0-.523-.9,14.642,14.642,0,0,1-4.144.518" fill="none" clip-rule="evenodd"/>
    </clipPath>
    <clipPath id="clip-path-76">
      <path id="Trazado_502" data-name="Trazado 502" d="M80.731-134.611a3.852,3.852,0,0,0,.1-.736c.052-1.485-.72-2.717-1.724-2.752s-1.859,1.141-1.91,2.626a3.9,3.9,0,0,0,.073.862h3.457" fill="none" clip-rule="evenodd"/>
    </clipPath>
    <clipPath id="clip-path-78">
      <path id="Trazado_505" data-name="Trazado 505" d="M105.387-134.611a3.932,3.932,0,0,0,.1-.736c.051-1.485-.72-2.717-1.724-2.752s-1.859,1.141-1.91,2.626a3.778,3.778,0,0,0,.073.862h3.457" fill="none" clip-rule="evenodd"/>
    </clipPath>
    <clipPath id="clip-path-80">
      <path id="Trazado_508" data-name="Trazado 508" d="M84.636-143.345a6.167,6.167,0,0,1-2.413,2.834,7.794,7.794,0,0,1-3.612,1.264,7.887,7.887,0,0,1-3.773-.578,6.329,6.329,0,0,1-2.913-2.3.474.474,0,0,1,.136-.656.474.474,0,0,1,.389-.059l.019.006a20.847,20.847,0,0,0,3.036.673,13.485,13.485,0,0,0,2.847.06,13.04,13.04,0,0,0,2.775-.578,18.37,18.37,0,0,0,2.83-1.249l.017-.009a.472.472,0,0,1,.639.194.473.473,0,0,1,.023.4" fill="none" clip-rule="evenodd"/>
    </clipPath>
    <clipPath id="clip-path-82">
      <path id="Trazado_511" data-name="Trazado 511" d="M97.552-143.274a6.173,6.173,0,0,0,2.408,2.839,7.79,7.79,0,0,0,3.61,1.27,7.879,7.879,0,0,0,3.774-.571,6.327,6.327,0,0,0,2.917-2.292.473.473,0,0,0-.134-.655.475.475,0,0,0-.389-.06l-.02,0a20.525,20.525,0,0,1-3.037.668,13.545,13.545,0,0,1-2.847.055,12.975,12.975,0,0,1-2.774-.584,18.306,18.306,0,0,1-2.828-1.254l-.017-.009a.472.472,0,0,0-.639.194.471.471,0,0,0-.024.394" fill="none" clip-rule="evenodd"/>
    </clipPath>
    <clipPath id="clip-path-84">
      <path id="Trazado_514" data-name="Trazado 514" d="M80.854-127.2c0,2.283-2.529,4.133-5.649,4.133s-5.65-1.85-5.65-4.133,2.529-4.135,5.65-4.135,5.649,1.851,5.649,4.135" fill="none" clip-rule="evenodd"/>
    </clipPath>
    <clipPath id="clip-path-86">
      <path id="Trazado_517" data-name="Trazado 517" d="M114.211-126.9c0,2.284-2.529,4.134-5.649,4.134s-5.65-1.85-5.65-4.134,2.529-4.133,5.65-4.133,5.649,1.85,5.649,4.133" fill="none" clip-rule="evenodd"/>
    </clipPath>
    <clipPath id="clip-path-88">
      <path id="Trazado_520" data-name="Trazado 520" d="M65.332-143.418l12.638,16.6a.38.38,0,0,0,.532.072.38.38,0,0,0,.073-.532l-12.639-16.6a.38.38,0,0,0-.532-.072.379.379,0,0,0-.072.532" fill="none" clip-rule="evenodd"/>
    </clipPath>
    <clipPath id="clip-path-90">
      <path id="Trazado_523" data-name="Trazado 523" d="M116.512-141.99l-9.706,15.121a.38.38,0,0,0,.114.524.38.38,0,0,0,.525-.114l9.707-15.121a.38.38,0,0,0-.115-.525.38.38,0,0,0-.525.115" fill="none" clip-rule="evenodd"/>
    </clipPath>
    <clipPath id="clip-path-92">
      <path id="Trazado_526" data-name="Trazado 526" d="M77.7-127.8l14.191-5.143a4.061,4.061,0,0,1,2.933.063l13.248,5.46-.759,25.057s-3.038,8.542-15.186,7.783a18.933,18.933,0,0,1-15.376-8.922l.949-24.3" fill="none" clip-rule="evenodd"/>
    </clipPath>
    <clipPath id="clip-path-94">
      <path id="Trazado_529" data-name="Trazado 529" d="M93.631-96.056q-.679,0-1.406-.044a17.624,17.624,0,0,1-13.936-7.794l.892-22.83,13.231-4.8a2.566,2.566,0,0,1,.867-.153,2.528,2.528,0,0,1,.97.193l12.276,5.06-.719,23.736c-.494,1.128-3.359,6.628-12.175,6.628" fill="none" clip-rule="evenodd"/>
    </clipPath>
    <clipPath id="clip-path-96">
      <path id="Trazado_532" data-name="Trazado 532" d="M93.636-94.537c9.435,0,12.787-5.872,13.516-7.446h0c-.73,1.574-4.08,7.445-13.517,7.446" fill="none" clip-rule="evenodd"/>
    </clipPath>
    <clipPath id="clip-path-98">
      <path id="Trazado_535" data-name="Trazado 535" d="M107.152-101.983c.02-.041.037-.08.053-.115-.016.035-.033.074-.052.115h0" fill="none" clip-rule="evenodd"/>
    </clipPath>
    <clipPath id="clip-path-100">
      <path id="Trazado_538" data-name="Trazado 538" d="M107.205-102.1c.076-.172.111-.269.111-.269l.618-20.425-.618,20.425s-.035.1-.111.269" fill="none" clip-rule="evenodd"/>
    </clipPath>
    <clipPath id="clip-path-102">
      <path id="Trazado_541" data-name="Trazado 541" d="M11.747-75.486h0a4.682,4.682,0,0,1,4.671,4.666v49.3a11.157,11.157,0,0,1,6.5,10.136A11.161,11.161,0,0,1,11.747-.229,11.162,11.162,0,0,1,.581-11.386a11.157,11.157,0,0,1,6.5-10.136v-49.3a4.682,4.682,0,0,1,4.67-4.666" fill="none" stroke="#707070" stroke-width="1" clip-rule="evenodd"/>
    </clipPath>
    <clipPath id="clip-path-103">
      <path id="Trazado_543" data-name="Trazado 543" d="M9.92-57.053v35.531a2.787,2.787,0,0,1-1.652,2.58,8.317,8.317,0,0,0-4.844,7.556A8.319,8.319,0,0,0,11.747-3.07a8.319,8.319,0,0,0,8.324-8.316,8.317,8.317,0,0,0-4.843-7.556,2.787,2.787,0,0,1-1.653-2.58V-57.053H9.92" fill="none" clip-rule="evenodd"/>
    </clipPath>
    <clipPath id="clip-path-104">
      <path id="Trazado_545" data-name="Trazado 545" d="M14.478-70.084h.33a.47.47,0,0,0,.469-.469h0a.47.47,0,0,0-.469-.469h-.33a.47.47,0,0,0-.469.469h0a.47.47,0,0,0,.469.469" fill="none" clip-rule="evenodd"/>
    </clipPath>
    <clipPath id="clip-path-105">
      <path id="Trazado_547" data-name="Trazado 547" d="M14.478-67.244h.33a.47.47,0,0,0,.469-.469h0a.47.47,0,0,0-.469-.469h-.33a.47.47,0,0,0-.469.469h0a.47.47,0,0,0,.469.469" fill="none" clip-rule="evenodd"/>
    </clipPath>
    <clipPath id="clip-path-106">
      <path id="Trazado_549" data-name="Trazado 549" d="M14.478-64.4h.33a.469.469,0,0,0,.469-.468h0a.47.47,0,0,0-.469-.469h-.33a.47.47,0,0,0-.469.469h0a.469.469,0,0,0,.469.468" fill="none" clip-rule="evenodd"/>
    </clipPath>
    <clipPath id="clip-path-107">
      <path id="Trazado_551" data-name="Trazado 551" d="M14.478-61.565h.33a.47.47,0,0,0,.469-.469.47.47,0,0,0-.469-.469h-.33a.47.47,0,0,0-.469.469.47.47,0,0,0,.469.469" fill="none" clip-rule="evenodd"/>
    </clipPath>
    <clipPath id="clip-path-108">
      <path id="Trazado_553" data-name="Trazado 553" d="M14.478-58.725h.33a.47.47,0,0,0,.469-.469h0a.47.47,0,0,0-.469-.468h-.33a.47.47,0,0,0-.469.468h0a.47.47,0,0,0,.469.469" fill="none" clip-rule="evenodd"/>
    </clipPath>
    <clipPath id="clip-path-109">
      <path id="Trazado_555" data-name="Trazado 555" d="M14.478-55.885h.33a.47.47,0,0,0,.469-.469h0a.469.469,0,0,0-.469-.468h-.33a.469.469,0,0,0-.469.468h0a.47.47,0,0,0,.469.469" fill="none" clip-rule="evenodd"/>
    </clipPath>
    <clipPath id="clip-path-110">
      <path id="Trazado_557" data-name="Trazado 557" d="M14.478-53.045h.33a.47.47,0,0,0,.469-.469h0a.47.47,0,0,0-.469-.469h-.33a.47.47,0,0,0-.469.469h0a.47.47,0,0,0,.469.469" fill="none" clip-rule="evenodd"/>
    </clipPath>
    <clipPath id="clip-path-111">
      <path id="Trazado_559" data-name="Trazado 559" d="M14.478-50.205h.33a.47.47,0,0,0,.469-.469h0a.47.47,0,0,0-.469-.469h-.33a.47.47,0,0,0-.469.469h0a.47.47,0,0,0,.469.469" fill="none" clip-rule="evenodd"/>
    </clipPath>
    <clipPath id="clip-path-112">
      <path id="Trazado_561" data-name="Trazado 561" d="M14.478-47.365h.33a.47.47,0,0,0,.469-.469h0a.47.47,0,0,0-.469-.469h-.33a.47.47,0,0,0-.469.469h0a.47.47,0,0,0,.469.469" fill="none" clip-rule="evenodd"/>
    </clipPath>
    <clipPath id="clip-path-113">
      <path id="Trazado_563" data-name="Trazado 563" d="M14.478-44.526h.33a.47.47,0,0,0,.469-.468h0a.47.47,0,0,0-.469-.469h-.33a.47.47,0,0,0-.469.469h0a.47.47,0,0,0,.469.468" fill="none" clip-rule="evenodd"/>
    </clipPath>
    <clipPath id="clip-path-114">
      <path id="Trazado_565" data-name="Trazado 565" d="M14.478-41.686h.33a.47.47,0,0,0,.469-.469.47.47,0,0,0-.469-.469h-.33a.47.47,0,0,0-.469.469.47.47,0,0,0,.469.469" fill="none" clip-rule="evenodd"/>
    </clipPath>
    <clipPath id="clip-path-115">
      <path id="Trazado_567" data-name="Trazado 567" d="M14.478-38.846h.33a.47.47,0,0,0,.469-.469.469.469,0,0,0-.469-.468h-.33a.469.469,0,0,0-.469.468.47.47,0,0,0,.469.469" fill="none" clip-rule="evenodd"/>
    </clipPath>
    <clipPath id="clip-path-116">
      <path id="Trazado_569" data-name="Trazado 569" d="M14.478-36.006h.33a.47.47,0,0,0,.469-.469h0a.47.47,0,0,0-.469-.469h-.33a.47.47,0,0,0-.469.469h0a.47.47,0,0,0,.469.469" fill="none" clip-rule="evenodd"/>
    </clipPath>
    <clipPath id="clip-path-117">
      <path id="Trazado_571" data-name="Trazado 571" d="M14.478-33.166h.33a.47.47,0,0,0,.469-.469h0a.47.47,0,0,0-.469-.469h-.33a.47.47,0,0,0-.469.469h0a.47.47,0,0,0,.469.469" fill="none" clip-rule="evenodd"/>
    </clipPath>
    <clipPath id="clip-path-118">
      <path id="Trazado_573" data-name="Trazado 573" d="M14.478-30.326h.33a.47.47,0,0,0,.469-.469h0a.47.47,0,0,0-.469-.469h-.33a.47.47,0,0,0-.469.469h0a.47.47,0,0,0,.469.469" fill="none" clip-rule="evenodd"/>
    </clipPath>
    <clipPath id="clip-path-119">
      <path id="Trazado_575" data-name="Trazado 575" d="M14.478-27.487h.33a.47.47,0,0,0,.469-.468.47.47,0,0,0-.469-.469h-.33a.47.47,0,0,0-.469.469.47.47,0,0,0,.469.468" fill="none" clip-rule="evenodd"/>
    </clipPath>
    <clipPath id="clip-path-120">
      <path id="Trazado_577" data-name="Trazado 577" d="M14.478-24.647h.33a.47.47,0,0,0,.469-.468.471.471,0,0,0-.469-.47h-.33a.471.471,0,0,0-.469.47.47.47,0,0,0,.469.468" fill="none" clip-rule="evenodd"/>
    </clipPath>
    <clipPath id="clip-path-121">
      <path id="Trazado_581" data-name="Trazado 581" d="M23.91-13.537,8.6-39.282a.505.505,0,0,1,.175-.69.505.505,0,0,1,.623.086L30.023-18.164a3.857,3.857,0,0,1-.141,5.453,3.857,3.857,0,0,1-5.453-.142,4,4,0,0,1-.519-.684" fill="#9d5454" clip-rule="evenodd"/>
    </clipPath>
    <clipPath id="clip-path-122">
      <path id="Trazado_583" data-name="Trazado 583" d="M15.564-1.352.877-15.843a.507.507,0,0,1,0-.717.508.508,0,0,1,.583-.1L20-7.607a3.886,3.886,0,0,1,1.786,5.195,3.886,3.886,0,0,1-5.2,1.787,4.01,4.01,0,0,1-1.024-.727" fill="none" clip-rule="evenodd"/>
    </clipPath>
    <clipPath id="clip-path-123">
      <path id="Trazado_585" data-name="Trazado 585" d="M35.413-22.357l-2.38-20.5a.507.507,0,0,1,.445-.561.506.506,0,0,1,.517.288L42.786-24.46a3.885,3.885,0,0,1-1.86,5.17,3.885,3.885,0,0,1-5.169-1.86,3.957,3.957,0,0,1-.344-1.207" fill="none" clip-rule="evenodd"/>
    </clipPath>
    <clipPath id="clip-path-124">
      <path id="Trazado_589" data-name="Trazado 589" d="M12.661-7.2a.842.842,0,0,0-.585-.588.852.852,0,0,0-.919.313.5.5,0,0,1-.393.212H9.677a3.316,3.316,0,0,0-.811-1.758l.826-.827a.5.5,0,0,1,.431-.128.845.845,0,0,0,.724-.238.854.854,0,0,0-.186-1.349.844.844,0,0,0-.829,0,.852.852,0,0,0-.429.872.487.487,0,0,1-.128.428l-.841.842a3.3,3.3,0,0,0-1.744-.693v-1.219a.5.5,0,0,1,.214-.395.846.846,0,0,0,.344-.68.856.856,0,0,0-1.086-.823.842.842,0,0,0-.588.585.851.851,0,0,0,.313.919.494.494,0,0,1,.213.394v1.216a3.308,3.308,0,0,0-1.76.681l-.826-.826a.494.494,0,0,1-.127-.431.847.847,0,0,0-.239-.724.855.855,0,0,0-1.349.186.842.842,0,0,0,0,.829.85.85,0,0,0,.871.429.5.5,0,0,1,.429.128l.809.809a3.319,3.319,0,0,0-.827,1.776H2.026a.5.5,0,0,1-.395-.214.845.845,0,0,0-.68-.344A.856.856,0,0,0,.128-6.735a.842.842,0,0,0,.585.588.852.852,0,0,0,.92-.313.493.493,0,0,1,.393-.212h1.02a3.316,3.316,0,0,0,.711,1.925l-.66.66a.5.5,0,0,1-.431.128.847.847,0,0,0-.724.238.855.855,0,0,0,.186,1.349.844.844,0,0,0,.829,0,.851.851,0,0,0,.429-.872.494.494,0,0,1,.128-.428l.647-.647A3.306,3.306,0,0,0,6.1-3.487V-2.6a.5.5,0,0,1-.215.4.843.843,0,0,0-.343.68A.855.855,0,0,0,6.627-.7a.84.84,0,0,0,.588-.584A.849.849,0,0,0,6.9-2.2.5.5,0,0,1,6.69-2.6V-3.49a3.317,3.317,0,0,0,1.924-.841l.661.662a.5.5,0,0,1,.128.43.843.843,0,0,0,.239.724A.854.854,0,0,0,10.99-2.7a.841.841,0,0,0,0-.83.854.854,0,0,0-.872-.428.494.494,0,0,1-.428-.128l-.679-.679a3.3,3.3,0,0,0,.7-1.906h1.053c.16,0,.126.075.4.214s.4.343.681.343c.547,0,.822-1.085.822-1.085" fill="none" clip-rule="evenodd"/>
    </clipPath>
    <clipPath id="clip-path-125">
      <path id="Trazado_589-2" data-name="Trazado 589" d="M25.038-1.255a1.669,1.669,0,0,0-1.161-1.164,1.693,1.693,0,0,0-1.824.62.985.985,0,0,1-.78.42H19.114A6.558,6.558,0,0,0,17.5-4.861L19.144-6.5A1,1,0,0,1,20-6.752a1.681,1.681,0,0,0,1.437-.471,1.689,1.689,0,0,0-.369-2.671A1.68,1.68,0,0,0,19.422-9.9a1.686,1.686,0,0,0-.852,1.727.962.962,0,0,1-.254.848L16.646-5.659a6.564,6.564,0,0,0-3.462-1.372V-9.445a.984.984,0,0,1,.425-.782,1.675,1.675,0,0,0,.683-1.347,1.7,1.7,0,0,0-2.156-1.63,1.669,1.669,0,0,0-1.167,1.158,1.683,1.683,0,0,0,.621,1.82.978.978,0,0,1,.423.78v2.408A6.577,6.577,0,0,0,8.519-5.689L6.88-7.325a.976.976,0,0,1-.252-.853,1.675,1.675,0,0,0-.474-1.434,1.7,1.7,0,0,0-2.678.368,1.663,1.663,0,0,0,0,1.642,1.689,1.689,0,0,0,1.729.85.989.989,0,0,1,.852.253L7.658-4.9A6.566,6.566,0,0,0,6.016-1.38H3.926A.99.99,0,0,1,3.142-1.8a1.679,1.679,0,0,0-1.35-.681A1.7,1.7,0,0,0,.158-.334,1.669,1.669,0,0,0,1.319.83,1.693,1.693,0,0,0,3.146.21a.979.979,0,0,1,.78-.42H5.951A6.556,6.556,0,0,0,7.362,3.6L6.052,4.909a.989.989,0,0,1-.856.253A1.689,1.689,0,1,0,6.626,6.585a.977.977,0,0,1,.254-.848L8.164,4.456A6.571,6.571,0,0,0,12.013,6.1V7.856a.992.992,0,0,1-.427.784,1.667,1.667,0,0,0-.681,1.347,1.7,1.7,0,0,0,2.154,1.628,1.683,1.683,0,0,0,.546-2.978.982.982,0,0,1-.421-.78V6.092A6.592,6.592,0,0,0,17,4.426l1.312,1.311a.978.978,0,0,1,.254.852,1.667,1.667,0,0,0,.474,1.434,1.7,1.7,0,0,0,2.676-.368,1.662,1.662,0,0,0,.006-1.644A1.7,1.7,0,0,0,20,5.163a.983.983,0,0,1-.85-.253L17.8,3.565A6.53,6.53,0,0,0,19.179-.21h2.09c.318,0,.25.148.784.424s.8.679,1.352.679c1.086,0,1.632-2.149,1.632-2.149" transform="translate(-0.098 13.265)" fill="none" clip-rule="evenodd"/>
    </clipPath>
    <clipPath id="clip-path-126">
      <path id="Trazado_589-3" data-name="Trazado 589" d="M22.818-2.324A1.52,1.52,0,0,0,21.76-3.385,1.542,1.542,0,0,0,20.1-2.82a.9.9,0,0,1-.711.382H17.422a5.975,5.975,0,0,0-1.467-3.171L17.449-7.1a.912.912,0,0,1,.779-.231,1.531,1.531,0,0,0,1.309-.429,1.539,1.539,0,0,0-.336-2.434,1.53,1.53,0,0,0-1.5-.005,1.536,1.536,0,0,0-.776,1.573.877.877,0,0,1-.231.772L15.174-6.336a5.98,5.98,0,0,0-3.154-1.25v-2.2a.9.9,0,0,1,.387-.713,1.526,1.526,0,0,0,.622-1.227,1.547,1.547,0,0,0-1.964-1.485A1.521,1.521,0,0,0,10-12.154a1.533,1.533,0,0,0,.566,1.658.891.891,0,0,1,.385.711v2.194A5.991,5.991,0,0,0,7.77-6.363L6.276-7.853a.89.89,0,0,1-.23-.778,1.526,1.526,0,0,0-.432-1.306,1.548,1.548,0,0,0-2.44.336,1.515,1.515,0,0,0,0,1.5,1.538,1.538,0,0,0,1.575.774.9.9,0,0,1,.776.231L6.985-5.641a5.982,5.982,0,0,0-1.5,3.2h-1.9a.9.9,0,0,1-.714-.386,1.529,1.529,0,0,0-1.23-.621A1.545,1.545,0,0,0,.153-1.485,1.52,1.52,0,0,0,1.211-.424,1.542,1.542,0,0,0,2.874-.989a.892.892,0,0,1,.711-.382H5.43A5.973,5.973,0,0,0,6.716,2.1L5.522,3.292a.9.9,0,0,1-.779.231,1.538,1.538,0,1,0,1.3,1.3.89.89,0,0,1,.231-.772l1.17-1.167a5.986,5.986,0,0,0,3.507,1.5v1.6a.9.9,0,0,1-.389.714,1.519,1.519,0,0,0-.62,1.227A1.545,1.545,0,0,0,11.906,9.4a1.533,1.533,0,0,0,.5-2.713.894.894,0,0,1-.383-.711V4.369A6.005,6.005,0,0,0,15.5,2.852l1.2,1.194a.891.891,0,0,1,.231.776,1.519,1.519,0,0,0,.432,1.306A1.547,1.547,0,0,0,19.8,5.793,1.514,1.514,0,0,0,19.8,4.3a1.545,1.545,0,0,0-1.577-.772.9.9,0,0,1-.774-.231L16.223,2.067a5.949,5.949,0,0,0,1.259-3.438h1.9c.289,0,.228.135.714.386s.727.619,1.232.619c.989,0,1.487-1.957,1.487-1.957" transform="translate(-0.098 13.265)" fill="none" clip-rule="evenodd"/>
    </clipPath>
    <clipPath id="clip-path-130">
      <path id="Trazado_591" data-name="Trazado 591" d="M8.619-.4a1.1,1.1,0,0,1-1.1-1.1,1.089,1.089,0,0,1,.443-.878.64.64,0,0,0,.276-.51V-4.031a4.271,4.271,0,0,1-2.5-1.07L4.9-4.266a.638.638,0,0,0-.165.552A1.094,1.094,0,0,1,4.185-2.59a1.071,1.071,0,0,1-.532.14,1.069,1.069,0,0,1-.537-.143,1.1,1.1,0,0,1-.241-1.739,1.094,1.094,0,0,1,.775-.32,1.062,1.062,0,0,1,.159.011.743.743,0,0,0,.115.009A.614.614,0,0,0,4.365-4.8l.852-.852A4.273,4.273,0,0,1,4.3-8.14H2.983a.638.638,0,0,0-.507.274,1.089,1.089,0,0,1-.88.445,1.177,1.177,0,0,1-.306-.041,1.087,1.087,0,0,1-.754-.759,1.1,1.1,0,0,1,1.06-1.4,1.089,1.089,0,0,1,.878.443.642.642,0,0,0,.51.276H4.342a4.287,4.287,0,0,1,1.066-2.292L4.365-12.237a.614.614,0,0,0-.441-.173.856.856,0,0,0-.112.008,1,1,0,0,1-.164.013,1.1,1.1,0,0,1-.96-.566,1.085,1.085,0,0,1,0-1.07,1.107,1.107,0,0,1,.962-.562,1.1,1.1,0,0,1,.778.322,1.094,1.094,0,0,1,.308.934.639.639,0,0,0,.165.556l1.065,1.066a4.267,4.267,0,0,1,2.269-.879v-1.569a.634.634,0,0,0-.274-.507,1.1,1.1,0,0,1-.4-1.186,1.09,1.09,0,0,1,.759-.755,1.166,1.166,0,0,1,.3-.039,1.1,1.1,0,0,1,1.1,1.1,1.091,1.091,0,0,1-.443.878A.641.641,0,0,0,9-14.157v1.573a4.265,4.265,0,0,1,2.25.893l1.085-1.085a.633.633,0,0,0,.165-.551,1.1,1.1,0,0,1,.553-1.125,1.07,1.07,0,0,1,.532-.139,1.072,1.072,0,0,1,.538.142,1.1,1.1,0,0,1,.24,1.74,1.087,1.087,0,0,1-.772.319,1.1,1.1,0,0,1-.162-.012.844.844,0,0,0-.112-.008.617.617,0,0,0-.443.173L11.807-11.17A4.275,4.275,0,0,1,12.853-8.9h1.4a.633.633,0,0,0,.507-.274,1.091,1.091,0,0,1,.88-.445,1.151,1.151,0,0,1,.307.042,1.085,1.085,0,0,1,.754.758,1.1,1.1,0,0,1-1.061,1.4,1.091,1.091,0,0,1-.878-.443.64.64,0,0,0-.509-.276H12.9A4.257,4.257,0,0,1,12-5.681l.876.876a.613.613,0,0,0,.44.174.7.7,0,0,0,.112-.009,1.121,1.121,0,0,1,.164-.012,1.1,1.1,0,0,1,.96.565,1.085,1.085,0,0,1,0,1.07,1.1,1.1,0,0,1-.962.562,1.093,1.093,0,0,1-.777-.322,1.09,1.09,0,0,1-.308-.934.647.647,0,0,0-.165-.556l-.853-.852A4.277,4.277,0,0,1,9-4.035v1.15a.633.633,0,0,0,.274.507,1.1,1.1,0,0,1,.4,1.186,1.079,1.079,0,0,1-.759.754,1.168,1.168,0,0,1-.3.04" fill="none" clip-rule="evenodd"/>
    </clipPath>
  </defs>
  <g id="Grupo_458" data-name="Grupo 458" transform="translate(-47 -123)">
    <g id="Grupo_443" data-name="Grupo 443" transform="translate(248.827 193.223)">
      <g id="Grupo_442" data-name="Grupo 442" clip-path="url(#clip-path)">
        <path id="Trazado_586" data-name="Trazado 586" d="M-4.827-30.223H30.117V4.72H-4.827Z" fill="#55b475"/>
      </g>
    </g>
    <g id="Grupo_446" data-name="Grupo 446" transform="translate(161.827 148.223)">
      <g id="Grupo_442-2" data-name="Grupo 442" clip-path="url(#clip-path)">
        <path id="Trazado_586-2" data-name="Trazado 586" d="M-4.827-30.223H30.117V4.72H-4.827Z" fill="#55b475"/>
      </g>
    </g>
    <g id="Grupo_450" data-name="Grupo 450" transform="translate(302.827 352.223)">
      <g id="Grupo_442-3" data-name="Grupo 442" clip-path="url(#clip-path)">
        <path id="Trazado_586-3" data-name="Trazado 586" d="M-4.827-30.223H30.117V4.72H-4.827Z" fill="#55b475"/>
      </g>
    </g>
    <g id="Grupo_451" data-name="Grupo 451" transform="translate(52.827 370.223)">
      <g id="Grupo_442-4" data-name="Grupo 442" clip-path="url(#clip-path)">
        <path id="Trazado_586-4" data-name="Trazado 586" d="M-4.827-30.223H30.117V4.72H-4.827Z" fill="#55b475"/>
      </g>
    </g>
    <g id="Grupo_437" data-name="Grupo 437" transform="translate(94.171 353.272)">
      <g id="Grupo_436" data-name="Grupo 436" clip-path="url(#clip-path-5)">
        <path id="Trazado_578" data-name="Trazado 578" d="M-4.171-189.272H189.184V4.083H-4.171Z" fill="#069d71"/>
      </g>
    </g>
    <g id="Grupo_415" data-name="Grupo 415" transform="translate(94.171 373.272)">
      <g id="Grupo_414" data-name="Grupo 414" clip-path="url(#clip-path-6)">
        <g id="Grupo_413" data-name="Grupo 413" style="isolation: isolate">
          <g id="Grupo_412" data-name="Grupo 412" clip-path="url(#clip-path-7)">
            <g id="Grupo_319" data-name="Grupo 319" clip-path="url(#clip-path-8)">
              <g id="Grupo_318" data-name="Grupo 318" clip-path="url(#clip-path-9)">
                <path id="Trazado_398" data-name="Trazado 398" d="M22.707-107.345H64.416V18.635H22.707Z" fill="#2f384e"/>
              </g>
            </g>
            <g id="Grupo_321" data-name="Grupo 321" clip-path="url(#clip-path-10)">
              <g id="Grupo_320" data-name="Grupo 320" clip-path="url(#clip-path-9)">
                <path id="Trazado_401" data-name="Trazado 401" d="M37.1-93.82h23.14v70.011H37.1Z" fill="#181f2f"/>
              </g>
            </g>
            <g id="Grupo_323" data-name="Grupo 323" clip-path="url(#clip-path-12)">
              <g id="Grupo_322" data-name="Grupo 322" clip-path="url(#clip-path-9)">
                <path id="Trazado_404" data-name="Trazado 404" d="M124-107.345h57.126v93.1H124Z" fill="#2f384e"/>
              </g>
            </g>
            <g id="Grupo_325" data-name="Grupo 325" clip-path="url(#clip-path-14)">
              <g id="Grupo_324" data-name="Grupo 324" clip-path="url(#clip-path-9)">
                <path id="Trazado_407" data-name="Trazado 407" d="M129.714-61.166h11.493V-39.1H129.714Z" fill="#c5a684"/>
              </g>
            </g>
            <g id="Grupo_327" data-name="Grupo 327" clip-path="url(#clip-path-16)">
              <g id="Grupo_326" data-name="Grupo 326" clip-path="url(#clip-path-9)">
                <path id="Trazado_410" data-name="Trazado 410" d="M129.536-95.868H160.6v63.893H129.536Z" fill="#181f2f"/>
              </g>
            </g>
            <g id="Grupo_329" data-name="Grupo 329" clip-path="url(#clip-path-18)">
              <g id="Grupo_328" data-name="Grupo 328" clip-path="url(#clip-path-9)">
                <path id="Trazado_413" data-name="Trazado 413" d="M48.933-113.377h91.143V19.236H48.933Z" fill="#2f384e"/>
              </g>
            </g>
            <g id="Grupo_331" data-name="Grupo 331" clip-path="url(#clip-path-20)">
              <g id="Grupo_330" data-name="Grupo 330" clip-path="url(#clip-path-9)">
                <path id="Trazado_416" data-name="Trazado 416" d="M56.255-135.522H84.279V-78.89H56.255Z" fill="#0c0314"/>
              </g>
            </g>
            <g id="Grupo_333" data-name="Grupo 333" clip-path="url(#clip-path-22)">
              <g id="Grupo_332" data-name="Grupo 332" clip-path="url(#clip-path-9)">
                <path id="Trazado_419" data-name="Trazado 419" d="M104.972-138.4h26.207v59.886H104.972Z" fill="#0c0314"/>
              </g>
            </g>
            <g id="Grupo_335" data-name="Grupo 335" clip-path="url(#clip-path-24)">
              <g id="Grupo_334" data-name="Grupo 334" clip-path="url(#clip-path-9)">
                <path id="Trazado_422" data-name="Trazado 422" d="M73.1-84.34h40.878v62.9H73.1Z" fill="#c37835"/>
              </g>
            </g>
            <g id="Grupo_337" data-name="Grupo 337" clip-path="url(#clip-path-26)">
              <g id="Grupo_336" data-name="Grupo 336" clip-path="url(#clip-path-9)">
                <path id="Trazado_425" data-name="Trazado 425" d="M77.79-66.357h31.416V-54.1H77.79Z" fill="#a9572d"/>
              </g>
            </g>
            <g id="Grupo_339" data-name="Grupo 339" clip-path="url(#clip-path-28)">
              <g id="Grupo_338" data-name="Grupo 338" clip-path="url(#clip-path-9)">
                <path id="Trazado_428" data-name="Trazado 428" d="M77.79-59.27h31.416v12.261H77.79Z" fill="#a9572d"/>
              </g>
            </g>
            <g id="Grupo_341" data-name="Grupo 341" clip-path="url(#clip-path-30)">
              <g id="Grupo_340" data-name="Grupo 340" clip-path="url(#clip-path-9)">
                <path id="Trazado_431" data-name="Trazado 431" d="M77.79-52.183h31.416v12.26H77.79Z" fill="#a9572d"/>
              </g>
            </g>
            <g id="Grupo_343" data-name="Grupo 343" clip-path="url(#clip-path-32)">
              <g id="Grupo_342" data-name="Grupo 342" clip-path="url(#clip-path-9)">
                <path id="Trazado_434" data-name="Trazado 434" d="M77.79-45.1h31.416v12.261H77.79Z" fill="#a9572d"/>
              </g>
            </g>
            <g id="Grupo_345" data-name="Grupo 345" clip-path="url(#clip-path-34)">
              <g id="Grupo_344" data-name="Grupo 344" clip-path="url(#clip-path-9)">
                <path id="Trazado_437" data-name="Trazado 437" d="M63.733-120.161h59.384V-58.9H63.733Z" fill="#ed9851"/>
              </g>
            </g>
            <g id="Grupo_347" data-name="Grupo 347" clip-path="url(#clip-path-36)">
              <g id="Grupo_346" data-name="Grupo 346" clip-path="url(#clip-path-9)">
                <path id="Trazado_440" data-name="Trazado 440" d="M66.768-116.356h52.9v37.716h-52.9Z" fill="#c37835"/>
              </g>
            </g>
            <g id="Grupo_349" data-name="Grupo 349" clip-path="url(#clip-path-38)">
              <g id="Grupo_348" data-name="Grupo 348" clip-path="url(#clip-path-9)">
                <path id="Trazado_443" data-name="Trazado 443" d="M67.4-95.288H79.033v22.9H67.4Z" fill="#c37835"/>
              </g>
            </g>
            <g id="Grupo_351" data-name="Grupo 351" clip-path="url(#clip-path-40)">
              <g id="Grupo_350" data-name="Grupo 350" clip-path="url(#clip-path-9)">
                <path id="Trazado_446" data-name="Trazado 446" d="M72.223-92.25H83.549v24.616H72.223Z" fill="#c37835"/>
              </g>
            </g>
            <g id="Grupo_353" data-name="Grupo 353" clip-path="url(#clip-path-42)">
              <g id="Grupo_352" data-name="Grupo 352" clip-path="url(#clip-path-9)">
                <path id="Trazado_449" data-name="Trazado 449" d="M77.954-88.64h11v25.378h-11Z" fill="#c37835"/>
              </g>
            </g>
            <g id="Grupo_355" data-name="Grupo 355" clip-path="url(#clip-path-44)">
              <g id="Grupo_354" data-name="Grupo 354" clip-path="url(#clip-path-9)">
                <path id="Trazado_452" data-name="Trazado 452" d="M85.186-86.744H96.044v26.7H85.186Z" fill="#c37835"/>
              </g>
            </g>
            <g id="Grupo_357" data-name="Grupo 357" clip-path="url(#clip-path-46)">
              <g id="Grupo_356" data-name="Grupo 356" clip-path="url(#clip-path-9)">
                <path id="Trazado_455" data-name="Trazado 455" d="M92.069-86.555H102.93v26.706H92.069Z" fill="#c37835"/>
              </g>
            </g>
            <g id="Grupo_359" data-name="Grupo 359" clip-path="url(#clip-path-48)">
              <g id="Grupo_358" data-name="Grupo 358" clip-path="url(#clip-path-9)">
                <path id="Trazado_458" data-name="Trazado 458" d="M98.977-87.884h11.205V-62.3H98.977Z" fill="#c37835"/>
              </g>
            </g>
            <g id="Grupo_361" data-name="Grupo 361" clip-path="url(#clip-path-50)">
              <g id="Grupo_360" data-name="Grupo 360" clip-path="url(#clip-path-9)">
                <path id="Trazado_461" data-name="Trazado 461" d="M104.479-91.3h11.545v24.237H104.479Z" fill="#c37835"/>
              </g>
            </g>
            <g id="Grupo_363" data-name="Grupo 363" clip-path="url(#clip-path-52)">
              <g id="Grupo_362" data-name="Grupo 362" clip-path="url(#clip-path-9)">
                <path id="Trazado_464" data-name="Trazado 464" d="M108.289-96.429H120.1V-74.65H108.289Z" fill="#c37835"/>
              </g>
            </g>
            <g id="Grupo_365" data-name="Grupo 365" clip-path="url(#clip-path-54)">
              <g id="Grupo_364" data-name="Grupo 364" clip-path="url(#clip-path-9)">
                <path id="Trazado_467" data-name="Trazado 467" d="M73.063-124.36h41.243V-78.3H73.063Z" fill="#ea9299"/>
              </g>
            </g>
            <g id="Grupo_367" data-name="Grupo 367" clip-path="url(#clip-path-56)">
              <g id="Grupo_366" data-name="Grupo 366" clip-path="url(#clip-path-9)">
                <path id="Trazado_470" data-name="Trazado 470" d="M58.759-182.063h67.056v91.618H58.759Z" fill="#eda1a4"/>
              </g>
            </g>
            <g id="Grupo_369" data-name="Grupo 369" clip-path="url(#clip-path-58)">
              <g id="Grupo_368" data-name="Grupo 368" clip-path="url(#clip-path-9)">
                <path id="Trazado_473" data-name="Trazado 473" d="M59.6-166.671H125.07v76.226H59.6Z" fill="#f0b2b3"/>
              </g>
            </g>
            <g id="Grupo_371" data-name="Grupo 371" clip-path="url(#clip-path-60)">
              <g id="Grupo_370" data-name="Grupo 370" clip-path="url(#clip-path-9)">
                <path id="Trazado_476" data-name="Trazado 476" d="M46.143-190.02H103.31V-74.806H46.143Z"/>
              </g>
            </g>
            <g id="Grupo_373" data-name="Grupo 373" clip-path="url(#clip-path-62)">
              <g id="Grupo_372" data-name="Grupo 372" clip-path="url(#clip-path-9)">
                <path id="Trazado_479" data-name="Trazado 479" d="M88.259-189.073H140.72V-75.7H88.259Z"/>
              </g>
            </g>
            <g id="Grupo_375" data-name="Grupo 375" clip-path="url(#clip-path-64)">
              <g id="Grupo_374" data-name="Grupo 374" clip-path="url(#clip-path-9)">
                <path id="Trazado_482" data-name="Trazado 482" d="M54.672-149.6H72.991v24.69H54.672Z" fill="#f0b2b3"/>
              </g>
            </g>
            <g id="Grupo_377" data-name="Grupo 377" clip-path="url(#clip-path-66)">
              <g id="Grupo_376" data-name="Grupo 376" clip-path="url(#clip-path-9)">
                <path id="Trazado_485" data-name="Trazado 485" d="M57.449-145.965H69.74V-128.3H57.449Z" fill="#eda1a5"/>
              </g>
            </g>
            <g id="Grupo_379" data-name="Grupo 379" clip-path="url(#clip-path-68)">
              <g id="Grupo_378" data-name="Grupo 378" clip-path="url(#clip-path-9)">
                <path id="Trazado_488" data-name="Trazado 488" d="M111.147-149.6h18.318v24.69H111.147Z" fill="#f0b2b3"/>
              </g>
            </g>
            <g id="Grupo_381" data-name="Grupo 381" clip-path="url(#clip-path-70)">
              <g id="Grupo_380" data-name="Grupo 380" clip-path="url(#clip-path-9)">
                <path id="Trazado_491" data-name="Trazado 491" d="M114.04-145.771h12.941v17.6H114.04Z" fill="#eda1a5"/>
              </g>
            </g>
            <g id="Grupo_383" data-name="Grupo 383" clip-path="url(#clip-path-72)">
              <g id="Grupo_382" data-name="Grupo 382" clip-path="url(#clip-path-9)">
                <path id="Trazado_494" data-name="Trazado 494" d="M91.265-180.479h17.421v38.733H91.265Z"/>
              </g>
            </g>
            <g id="Grupo_385" data-name="Grupo 385" clip-path="url(#clip-path-74)">
              <g id="Grupo_384" data-name="Grupo 384" clip-path="url(#clip-path-9)">
                <path id="Trazado_497" data-name="Trazado 497" d="M82.4-129.106h19.651v13.44H82.4Z" fill="#ea9299"/>
              </g>
            </g>
            <g id="Grupo_387" data-name="Grupo 387" clip-path="url(#clip-path-76)">
              <g id="Grupo_386" data-name="Grupo 386" clip-path="url(#clip-path-9)">
                <path id="Trazado_500" data-name="Trazado 500" d="M72.2-143.1H85.837v13.489H72.2Z" fill="#0c0314"/>
              </g>
            </g>
            <g id="Grupo_389" data-name="Grupo 389" clip-path="url(#clip-path-78)">
              <g id="Grupo_388" data-name="Grupo 388" clip-path="url(#clip-path-9)">
                <path id="Trazado_503" data-name="Trazado 503" d="M96.855-143.1h13.639v13.489H96.855Z" fill="#0c0314"/>
              </g>
            </g>
            <g id="Grupo_391" data-name="Grupo 391" clip-path="url(#clip-path-80)">
              <g id="Grupo_390" data-name="Grupo 390" clip-path="url(#clip-path-9)">
                <path id="Trazado_506" data-name="Trazado 506" d="M66.847-148.99H89.669v14.775H66.847Z" fill="#0c0314"/>
              </g>
            </g>
            <g id="Grupo_393" data-name="Grupo 393" clip-path="url(#clip-path-82)">
              <g id="Grupo_392" data-name="Grupo 392" clip-path="url(#clip-path-9)">
                <path id="Trazado_509" data-name="Trazado 509" d="M92.52-148.918h22.82v14.786H92.52Z" fill="#0c0314"/>
              </g>
            </g>
            <g id="Grupo_395" data-name="Grupo 395" clip-path="url(#clip-path-84)">
              <g id="Grupo_394" data-name="Grupo 394" clip-path="url(#clip-path-9)">
                <path id="Trazado_512" data-name="Trazado 512" d="M64.555-136.339h21.3v18.268h-21.3Z" fill="#ea9299"/>
              </g>
            </g>
            <g id="Grupo_397" data-name="Grupo 397" clip-path="url(#clip-path-86)">
              <g id="Grupo_396" data-name="Grupo 396" clip-path="url(#clip-path-9)">
                <path id="Trazado_515" data-name="Trazado 515" d="M97.912-136.034h21.3v18.267h-21.3Z" fill="#ea9299"/>
              </g>
            </g>
            <g id="Grupo_399" data-name="Grupo 399" clip-path="url(#clip-path-88)">
              <g id="Grupo_398" data-name="Grupo 398" clip-path="url(#clip-path-9)">
                <path id="Trazado_518" data-name="Trazado 518" d="M60.254-149.027h23.4v27.363h-23.4Z" fill="#fffefe"/>
              </g>
            </g>
            <g id="Grupo_401" data-name="Grupo 401" clip-path="url(#clip-path-90)">
              <g id="Grupo_400" data-name="Grupo 400" clip-path="url(#clip-path-9)">
                <path id="Trazado_521" data-name="Trazado 521" d="M101.746-147.165h20.466v25.88H101.746Z" fill="#fffefe"/>
              </g>
            </g>
            <g id="Grupo_403" data-name="Grupo 403" clip-path="url(#clip-path-92)">
              <g id="Grupo_402" data-name="Grupo 402" clip-path="url(#clip-path-9)">
                <path id="Trazado_524" data-name="Trazado 524" d="M71.754-138.191h41.321v48.654H71.754Z" fill="#fffefe"/>
              </g>
            </g>
            <g id="Grupo_405" data-name="Grupo 405" clip-path="url(#clip-path-94)">
              <g id="Grupo_404" data-name="Grupo 404" clip-path="url(#clip-path-9)">
                <path id="Trazado_527" data-name="Trazado 527" d="M73.289-136.673h38.236v45.617H73.289Z" fill="#f4f3f0"/>
              </g>
            </g>
            <g id="Grupo_407" data-name="Grupo 407" clip-path="url(#clip-path-96)">
              <g id="Grupo_406" data-name="Grupo 406" clip-path="url(#clip-path-9)">
                <path id="Trazado_530" data-name="Trazado 530" d="M88.636-106.983h23.517v17.446H88.636Z" fill="#ea8f94"/>
              </g>
            </g>
            <g id="Grupo_409" data-name="Grupo 409" clip-path="url(#clip-path-98)">
              <g id="Grupo_408" data-name="Grupo 408" clip-path="url(#clip-path-9)">
                <path id="Trazado_533" data-name="Trazado 533" d="M102.152-107.1h10.053v10.115H102.152Z" fill="#ec9da0"/>
              </g>
            </g>
            <g id="Grupo_411" data-name="Grupo 411" clip-path="url(#clip-path-100)">
              <g id="Grupo_410" data-name="Grupo 410" clip-path="url(#clip-path-9)">
                <path id="Trazado_536" data-name="Trazado 536" d="M102.205-127.792h10.729V-97.1H102.205Z" fill="#efaead"/>
              </g>
            </g>
          </g>
        </g>
      </g>
    </g>
    <g id="Grupo_435" data-name="Grupo 435" transform="translate(247.419 255.486)">
      <g id="Grupo_416" data-name="Grupo 416" clip-path="url(#clip-path-102)">
        <path id="Trazado_540" data-name="Trazado 540" d="M-4.419-80.486H27.914V4.771H-4.419Z" fill="#fffefe"/>
      </g>
      <g id="Grupo_417" data-name="Grupo 417" clip-path="url(#clip-path-103)">
        <path id="Trazado_542" data-name="Trazado 542" d="M-1.576-62.053H25.071V1.93H-1.576Z" fill="#df565f"/>
      </g>
      <g id="Grupo_418" data-name="Grupo 418" clip-path="url(#clip-path-104)">
        <path id="Trazado_544" data-name="Trazado 544" d="M9.009-76.023H20.277v10.939H9.009Z" fill="#c1bed1"/>
      </g>
      <g id="Grupo_419" data-name="Grupo 419" clip-path="url(#clip-path-105)">
        <path id="Trazado_546" data-name="Trazado 546" d="M9.009-73.183H20.277v10.939H9.009Z" fill="#c1bed1"/>
      </g>
      <g id="Grupo_420" data-name="Grupo 420" clip-path="url(#clip-path-106)">
        <path id="Trazado_548" data-name="Trazado 548" d="M9.009-70.343H20.277V-59.4H9.009Z" fill="#c1bed1"/>
      </g>
      <g id="Grupo_421" data-name="Grupo 421" clip-path="url(#clip-path-107)">
        <path id="Trazado_550" data-name="Trazado 550" d="M9.009-67.5H20.277v10.938H9.009Z" fill="#c1bed1"/>
      </g>
      <g id="Grupo_422" data-name="Grupo 422" clip-path="url(#clip-path-108)">
        <path id="Trazado_552" data-name="Trazado 552" d="M9.009-64.663H20.277v10.938H9.009Z" fill="#c1bed1"/>
      </g>
      <g id="Grupo_423" data-name="Grupo 423" clip-path="url(#clip-path-109)">
        <path id="Trazado_554" data-name="Trazado 554" d="M9.009-61.823H20.277v10.938H9.009Z" fill="#c1bed1"/>
      </g>
      <g id="Grupo_424" data-name="Grupo 424" clip-path="url(#clip-path-110)">
        <path id="Trazado_556" data-name="Trazado 556" d="M9.009-58.984H20.277v10.939H9.009Z" fill="#c1bed1"/>
      </g>
      <g id="Grupo_425" data-name="Grupo 425" clip-path="url(#clip-path-111)">
        <path id="Trazado_558" data-name="Trazado 558" d="M9.009-56.144H20.277v10.939H9.009Z" fill="#c1bed1"/>
      </g>
      <g id="Grupo_426" data-name="Grupo 426" clip-path="url(#clip-path-112)">
        <path id="Trazado_560" data-name="Trazado 560" d="M9.009-53.3H20.277v10.939H9.009Z" fill="#c1bed1"/>
      </g>
      <g id="Grupo_427" data-name="Grupo 427" clip-path="url(#clip-path-113)">
        <path id="Trazado_562" data-name="Trazado 562" d="M9.009-50.464H20.277v10.938H9.009Z" fill="#c1bed1"/>
      </g>
      <g id="Grupo_428" data-name="Grupo 428" clip-path="url(#clip-path-114)">
        <path id="Trazado_564" data-name="Trazado 564" d="M9.009-47.624H20.277v10.938H9.009Z" fill="#c1bed1"/>
      </g>
      <g id="Grupo_429" data-name="Grupo 429" clip-path="url(#clip-path-115)">
        <path id="Trazado_566" data-name="Trazado 566" d="M9.009-44.783H20.277v10.937H9.009Z" fill="#c1bed1"/>
      </g>
      <g id="Grupo_430" data-name="Grupo 430" clip-path="url(#clip-path-116)">
        <path id="Trazado_568" data-name="Trazado 568" d="M9.009-41.945H20.277v10.939H9.009Z" fill="#c1bed1"/>
      </g>
      <g id="Grupo_431" data-name="Grupo 431" clip-path="url(#clip-path-117)">
        <path id="Trazado_570" data-name="Trazado 570" d="M9.009-39.1H20.277v10.939H9.009Z" fill="#c1bed1"/>
      </g>
      <g id="Grupo_432" data-name="Grupo 432" clip-path="url(#clip-path-118)">
        <path id="Trazado_572" data-name="Trazado 572" d="M9.009-36.265H20.277v10.939H9.009Z" fill="#c1bed1"/>
      </g>
      <g id="Grupo_433" data-name="Grupo 433" clip-path="url(#clip-path-119)">
        <path id="Trazado_574" data-name="Trazado 574" d="M9.009-33.424H20.277v10.937H9.009Z" fill="#c1bed1"/>
      </g>
      <g id="Grupo_434" data-name="Grupo 434" clip-path="url(#clip-path-120)">
        <path id="Trazado_576" data-name="Trazado 576" d="M9.009-30.585H20.277v10.938H9.009Z" fill="#c1bed1"/>
      </g>
    </g>
    <g id="Grupo_441" data-name="Grupo 441" transform="translate(132.274 212.417)">
      <g id="Grupo_438" data-name="Grupo 438" clip-path="url(#clip-path-121)">
        <path id="Trazado_580" data-name="Trazado 580" d="M3.531-45.043H36.083V-6.651H3.531Z" fill="#fffefe"/>
      </g>
      <g id="Grupo_439" data-name="Grupo 439" clip-path="url(#clip-path-122)">
        <path id="Trazado_582" data-name="Trazado 582" d="M-4.274-21.71H27.178V4.769H-4.274Z" fill="#fffefe"/>
      </g>
      <g id="Grupo_440" data-name="Grupo 440" clip-path="url(#clip-path-123)">
        <path id="Trazado_584" data-name="Trazado 584" d="M28.03-48.416H48.157v34.5H28.03Z" fill="#fffefe"/>
      </g>
    </g>
    <g id="Grupo_445" data-name="Grupo 445" transform="translate(109.902 267.265)">
      <g id="Grupo_444" data-name="Grupo 444" clip-path="url(#clip-path-124)">
        <path id="Trazado_588" data-name="Trazado 588" d="M-4.9-18.265H17.692V4.33H-4.9Z" fill="#6bbc8b"/>
      </g>
    </g>
    <g id="Grupo_447" data-name="Grupo 447" transform="translate(258.902 290.265)">
      <g id="Grupo_444-2" data-name="Grupo 444" transform="translate(0.098 -13.265)" clip-path="url(#clip-path-125)">
        <path id="Trazado_588-2" data-name="Trazado 588" d="M-4.9-18.265H39.95V26.478H-4.9Z" transform="translate(-5.023 8.363)" fill="#6bbc8b"/>
      </g>
    </g>
    <g id="Grupo_456" data-name="Grupo 456" transform="matrix(0.996, 0.087, -0.087, 0.996, 154.687, 383.377)">
      <g id="Grupo_444-3" data-name="Grupo 444" transform="translate(0.098 -13.265)" clip-path="url(#clip-path-126)">
        <path id="Trazado_588-3" data-name="Trazado 588" d="M-4.9-18.265H35.959V22.5H-4.9Z" transform="translate(-4.14 9.245)" fill="#6bbc8b"/>
      </g>
    </g>
    <g id="Grupo_452" data-name="Grupo 452" transform="translate(101.902 207.265)">
      <g id="Grupo_444-4" data-name="Grupo 444" transform="translate(0.098 -13.265)" clip-path="url(#clip-path-125)">
        <path id="Trazado_588-4" data-name="Trazado 588" d="M-4.9-18.265H39.95V26.478H-4.9Z" transform="translate(-5.023 8.363)" fill="#6bbc8b"/>
      </g>
    </g>
    <g id="Grupo_448" data-name="Grupo 448" transform="translate(46.902 243.265)">
      <g id="Grupo_444-5" data-name="Grupo 444" clip-path="url(#clip-path-124)">
        <path id="Trazado_588-5" data-name="Trazado 588" d="M-4.9-18.265H17.692V4.33H-4.9Z" fill="#6bbc8b"/>
      </g>
    </g>
    <g id="Grupo_457" data-name="Grupo 457" transform="translate(308.902 172.265)">
      <g id="Grupo_444-6" data-name="Grupo 444" clip-path="url(#clip-path-124)">
        <path id="Trazado_588-6" data-name="Trazado 588" d="M-4.9-18.265H17.692V4.33H-4.9Z" fill="#6bbc8b"/>
      </g>
    </g>
    <g id="Grupo_454" data-name="Grupo 454" transform="translate(56.504 165.644)">
      <g id="Grupo_453" data-name="Grupo 453" clip-path="url(#clip-path-130)">
        <path id="Trazado_590" data-name="Trazado 590" d="M-4.5-21.644H21.742V4.6H-4.5Z" fill="#55b475"/>
      </g>
    </g>
  </g>
</svg>
