<svg xmlns="http://www.w3.org/2000/svg" width="56" height="55.41" viewBox="0 0 56 55.41">
  <g id="Grupo_311" data-name="Grupo 311" transform="translate(-231 -266)">
    <path id="blob" d="M-4.869-56.629C.875-55.342,5.149-49.184,7.539-42.291A43.751,43.751,0,0,1,9.055-20C7.63-12.236,4.23-4.286-1.744-3.6c-6.02.735-14.614-5.79-20.864-8.961-6.25-3.217-10.2-3.171-13.005-4.917-2.849-1.746-4.55-5.285-5.79-9.053-1.195-3.722-1.884-7.629-3.125-14.154-1.241-6.48-3.033-15.625.138-17.739s11.3,2.757,18.979,3.4C-17.783-54.331-10.568-57.962-4.869-56.629Z" transform="translate(277.168 324.949)" fill="#e46e85"/>
    <g id="wear-mask-icon" transform="translate(231 255.621)">
      <path id="Trazado_375" data-name="Trazado 375" d="M56,26.373c0-4.1-1.479-6.068-2.721-7a4.707,4.707,0,0,0-4.082-.84c-2.625.748-4.274,3.938-4.961,5.561-.118-.044-.232-.083-.354-.118-1.444-.411-3.036-1.032-4.725-1.689-3.5-1.365-7.486-2.909-11.169-2.909-4.069,0-8.785,1.855-12.574,3.343-1.229.486-2.393.945-3.364,1.269-.092.031-.188.074-.28.114-.687-1.614-2.345-4.812-4.966-5.569a4.7,4.7,0,0,0-4.082.84C1.479,20.3,0,22.278,0,26.373c0,6.3,7.77,18.528,8.1,19.062h0c1.107,3.268,2.3,6.072,2.931,6.72C14.6,55.768,22.816,58.28,27.969,58.28s13.4-2.52,16.936-6.125c.634-.647,1.877-3.522,3.023-6.812C48.676,44.205,56,32.493,56,26.373Zm-6.322-6.16a2.94,2.94,0,0,1,2.546.551c1.313.984,2.026,2.975,2.026,5.609,0,3.063-2.161,7.906-4.213,11.812a16.87,16.87,0,0,0,.437-3.032A14.077,14.077,0,0,0,45.758,24.96C46.375,23.424,47.814,20.747,49.678,20.213ZM1.75,26.373c0-2.625.717-4.624,2.026-5.609a2.936,2.936,0,0,1,2.546-.551c1.859.529,3.294,3.22,3.938,4.76A13.047,13.047,0,0,0,5.6,34.6a20.086,20.086,0,0,0,.564,3.938C4.038,34.567,1.75,29.523,1.75,26.373ZM43.671,50.952C40.854,53.835,33.25,56.56,28,56.56c-5.316,0-12.792-2.678-15.689-5.613-.875-.923-4.97-12.25-4.97-16.349,0-3.631,2.625-8.067,5.276-8.956,1.011-.337,2.188-.8,3.452-1.312,3.618-1.422,8.181-3.207,11.931-3.207,3.356,0,7,1.417,10.535,2.791,1.75.669,3.356,1.313,4.883,1.75a3.6,3.6,0,0,1,.814.368.988.988,0,0,0,.114.07c2.31,1.47,4.471,5.709,4.375,9.026C48.641,39.113,44.511,50.072,43.671,50.952Z" fill="#333"/>
      <path id="Trazado_376" data-name="Trazado 376" d="M59.966,72.27A81.58,81.58,0,0,1,50.5,73.46a78.7,78.7,0,0,1-9.467-1.19.876.876,0,0,0-.315,1.724A79.628,79.628,0,0,0,50.5,75.2a79.151,79.151,0,0,0,9.783-1.216.876.876,0,1,0-.315-1.724Z" transform="translate(-22.498 -30.301)" fill="#333"/>
      <path id="Trazado_377" data-name="Trazado 377" d="M59.966,59.27A81.579,81.579,0,0,1,50.5,60.46a78.7,78.7,0,0,1-9.467-1.19.876.876,0,0,0-.315,1.724A79.625,79.625,0,0,0,50.5,62.2a79.152,79.152,0,0,0,9.783-1.216.876.876,0,1,0-.315-1.724Z" transform="translate(-22.498 -22.988)" fill="#333"/>
      <path id="Trazado_378" data-name="Trazado 378" d="M59.966,46.27A81.58,81.58,0,0,1,50.5,47.46a78.7,78.7,0,0,1-9.467-1.19.876.876,0,0,0-.315,1.724A79.626,79.626,0,0,0,50.5,49.2a79.151,79.151,0,0,0,9.783-1.216.876.876,0,1,0-.315-1.724Z" transform="translate(-22.498 -15.676)" fill="#333"/>
    </g>
  </g>
</svg>
