<svg id="Grupo_491" data-name="Grupo 491" xmlns="http://www.w3.org/2000/svg" width="24" height="23.947" viewBox="0 0 24 23.947">
  <g id="Grupo_26" data-name="Grupo 26">
    <g id="Grupo_25" data-name="Grupo 25">
      <path id="Trazado_21" data-name="Trazado 21" d="M63.818,69.719h0a12.391,12.391,0,0,1-4.509-.981,23.236,23.236,0,0,1-7.667-5.3c-4.933-4.933-6.745-8.6-6.254-12.662A6.515,6.515,0,0,1,47.7,46.5a2.456,2.456,0,0,1,1.746-.729,2.321,2.321,0,0,1,1.654.679l3.532,3.532a2.41,2.41,0,0,1-.047,3.4l-1.011,1.009a.853.853,0,0,0-.132,1.035,15.449,15.449,0,0,0,6.209,6.22.852.852,0,0,0,1.03-.134L61.7,60.5a2.453,2.453,0,0,1,1.744-.727,2.326,2.326,0,0,1,1.654.677l3.533,3.533a2.414,2.414,0,0,1-.046,3.4l-.005.005A6.575,6.575,0,0,1,64.309,69.7H64.3A4.669,4.669,0,0,1,63.818,69.719ZM49.448,46.911a1.323,1.323,0,0,0-.94.395,5.382,5.382,0,0,0-1.989,3.6c-.444,3.674,1.274,7.07,5.928,11.724,5.521,5.521,10.1,5.95,11.37,5.95h0c.21,0,.331-.011.36-.014a5.475,5.475,0,0,0,3.6-1.99,1.273,1.273,0,0,0,.045-1.79L64.3,61.254a1.193,1.193,0,0,0-.849-.344,1.322,1.322,0,0,0-.939.394L61.49,62.319a1.991,1.991,0,0,1-2.408.312,17.769,17.769,0,0,1-3.79-2.839A17.4,17.4,0,0,1,52.463,56a1.992,1.992,0,0,1,.309-2.418l1.01-1.009a1.269,1.269,0,0,0,.046-1.789L50.3,47.256A1.189,1.189,0,0,0,49.448,46.911Z" transform="translate(-45.311 -45.772)" fill="#234d8f"/>
    </g>
  </g>
</svg>
